M48
; DRILL file {KiCad (5.1.10)-1} date 07/20/21 10:53:21
; FORMAT={-:-/ absolute / inch / decimal}
; #@! TF.CreationDate,2021-07-20T10:53:21+02:00
; #@! TF.GenerationSoftware,Kicad,Pcbnew,(5.1.10)-1
; #@! TF.FileFunction,Plated,1,2,PTH
FMAT,2
INCH
T1C0.0157
T2C0.0315
T3C0.0394
T4C0.0472
%
G90
G05
T1
X3.6811Y-2.6181
X3.8976Y-5.3543
X4.0551Y-5.4724
X4.1339Y-5.3543
X4.1929Y-5.4724
X4.3504Y-5.7087
X4.4291Y-5.2864
X4.4882Y-5.1181
X4.5669Y-4.9213
X4.6063Y-5.7087
X4.6457Y-5.5512
X4.685Y-4.8031
X4.6959Y-5.5906
X4.7244Y-5.8268
X4.7441Y-4.626
X4.7633Y-5.3932
X4.7633Y-5.905
X4.8539Y-4.7281
X4.8539Y-4.7781
X4.8539Y-4.8281
X4.8539Y-4.8781
X4.8539Y-5.4762
X4.8539Y-5.5262
X4.8539Y-5.5762
X4.8539Y-5.6262
X4.8819Y-5.9449
X5.0674Y-4.7281
X5.0674Y-4.7781
X5.0674Y-4.8281
X5.0674Y-4.8781
X5.0674Y-5.4762
X5.0674Y-5.5262
X5.0674Y-5.5762
X5.0674Y-5.6262
X5.1378Y-5.1467
X5.1575Y-5.8661
X5.1772Y-3.7992
X5.1772Y-5.5118
X5.3543Y-4.9409
X5.3543Y-5.6299
X5.374Y-4.8228
X5.3937Y-5.5118
X5.5498Y-5.9069
X5.5512Y-5.0394
X5.5906Y-4.9016
X5.5906Y-5.7677
X5.5906Y-5.8858
X5.8268Y-6.7323
X5.877Y-6.3386
X5.9055Y-6.4567
X6.0827Y-6.5157
X8.3465Y-6.6841
X8.4252Y-6.0236
X8.878Y-6.7126
X8.9567Y-6.2008
X9.0551Y-4.8819
X9.0945Y-4.9911
X9.1063Y-4.8543
X9.2913Y-5.5906
T2
X4.7638Y-6.178
X4.7638Y-6.378
X4.7638Y-6.5717
X4.7638Y-6.7717
X4.8031Y-5.0394
X4.8031Y-5.748
X5.0Y-6.1024
X5.0Y-6.4024
X5.0Y-6.5354
X5.0Y-6.8354
X5.1031Y-5.0394
X5.1031Y-5.748
X5.2362Y-6.2992
X5.2362Y-6.3992
X5.2362Y-6.4992
X5.2362Y-6.5992
X5.5362Y-6.2992
X5.5362Y-6.3992
X5.5362Y-6.4992
X5.5362Y-6.5992
T3
X3.7598Y-4.6984
X3.7598Y-4.7984
X3.7598Y-4.8984
X3.7598Y-4.9984
X3.7598Y-5.0984
X3.7598Y-5.4465
X3.7598Y-5.5465
X3.7598Y-5.6465
X3.7598Y-5.7465
X3.7598Y-5.8465
X3.7976Y-2.2441
X3.7976Y-2.3441
X3.7976Y-2.4441
X3.7976Y-2.5441
X3.7976Y-2.6441
X3.7976Y-2.7441
X3.7976Y-2.8441
X3.7976Y-2.9441
X3.7976Y-3.0441
X3.7976Y-3.1441
X3.7976Y-3.2441
X3.7976Y-3.3441
X3.7976Y-3.4441
X3.7976Y-3.5441
X3.7976Y-3.6441
X3.7976Y-3.7441
X3.7976Y-3.8441
X3.7976Y-3.9441
X3.7976Y-4.0441
X3.7976Y-4.1441
X3.7976Y-4.2441
X3.7976Y-4.3441
X3.8976Y-2.2441
X3.8976Y-2.3441
X3.8976Y-2.4441
X3.8976Y-2.5441
X3.8976Y-2.6441
X3.8976Y-2.7441
X3.8976Y-2.8441
X3.8976Y-2.9441
X3.8976Y-3.0441
X3.8976Y-3.1441
X3.8976Y-3.2441
X3.8976Y-3.3441
X3.8976Y-3.4441
X3.8976Y-3.5441
X3.8976Y-3.6441
X3.8976Y-3.7441
X3.8976Y-3.8441
X3.8976Y-3.9441
X3.8976Y-4.0441
X3.8976Y-4.1441
X3.8976Y-4.2441
X3.8976Y-4.3441
X4.3488Y-6.2929
X4.3488Y-6.3929
X4.3488Y-6.4929
X4.3488Y-6.5929
X4.3488Y-6.6929
X4.4488Y-6.2929
X4.4488Y-6.3929
X4.4488Y-6.4929
X4.4488Y-6.5929
X4.4488Y-6.6929
X5.4961Y-2.2441
X5.4961Y-2.3441
X5.4961Y-2.4441
X5.4961Y-2.5441
X5.4961Y-2.6441
X5.4961Y-2.7441
X5.4961Y-2.8441
X5.4961Y-2.9441
X5.4961Y-3.0441
X5.4961Y-3.1441
X5.4961Y-3.2441
X5.4961Y-3.3441
X5.4961Y-3.4441
X5.4961Y-3.5441
X5.4961Y-3.6441
X5.4961Y-3.7441
X5.4961Y-3.8441
X5.4961Y-3.9441
X5.4961Y-4.0441
X5.4961Y-4.1441
X5.4961Y-4.2441
X5.4961Y-4.3441
X5.5961Y-2.2441
X5.5961Y-2.3441
X5.5961Y-2.4441
X5.5961Y-2.5441
X5.5961Y-2.6441
X5.5961Y-2.7441
X5.5961Y-2.8441
X5.5961Y-2.9441
X5.5961Y-3.0441
X5.5961Y-3.1441
X5.5961Y-3.2441
X5.5961Y-3.3441
X5.5961Y-3.4441
X5.5961Y-3.5441
X5.5961Y-3.6441
X5.5961Y-3.7441
X5.5961Y-3.8441
X5.5961Y-3.9441
X5.5961Y-4.0441
X5.5961Y-4.1441
X5.5961Y-4.2441
X5.5961Y-4.3441
X6.1722Y-2.1191
X6.1722Y-2.2191
X6.1722Y-3.2191
X6.1722Y-3.3191
X6.1722Y-3.4191
X6.1722Y-3.5191
X6.1722Y-3.6191
X6.1722Y-3.7191
X6.1722Y-3.8191
X6.1722Y-3.9191
X6.1722Y-4.0191
X6.1722Y-4.1191
X6.1722Y-4.2191
X6.1722Y-4.3191
X6.1722Y-4.4191
X6.1722Y-4.5191
X6.1722Y-4.6191
X6.1722Y-4.7191
X6.1722Y-4.8191
X6.1722Y-4.9191
X6.1722Y-5.0191
X6.1722Y-5.1191
X6.1722Y-5.2191
X6.1722Y-5.3191
X6.1722Y-5.4191
X6.1722Y-5.5191
X6.1722Y-5.6191
X6.1722Y-5.7191
X6.1722Y-5.8191
X6.1722Y-5.9191
X6.1722Y-6.0191
X6.1722Y-6.1191
X6.1722Y-6.2191
X6.1722Y-6.3191
X6.1722Y-6.4191
X6.1722Y-6.5191
X6.1722Y-6.6191
X6.1722Y-6.7191
X6.2722Y-3.2191
X6.2722Y-3.3191
X6.2722Y-3.4191
X6.2722Y-3.5191
X6.2722Y-3.6191
X6.2722Y-3.7191
X6.2722Y-3.8191
X6.2722Y-3.9191
X6.2722Y-4.0191
X6.2722Y-4.1191
X6.2722Y-4.2191
X6.2722Y-4.3191
X6.2722Y-4.4191
X6.2722Y-4.5191
X6.2722Y-4.6191
X6.2722Y-4.7191
X6.2722Y-4.8191
X6.2722Y-4.9191
X6.2722Y-5.0191
X6.2722Y-5.1191
X6.2722Y-5.2191
X6.2722Y-5.3191
X6.2722Y-5.4191
X6.2722Y-5.5191
X6.2722Y-5.6191
X6.2722Y-5.7191
X6.2722Y-5.8191
X6.2722Y-5.9191
X6.2722Y-6.0191
X6.2722Y-6.1191
X6.2722Y-6.2191
X6.2722Y-6.3191
X6.2722Y-6.4191
X6.2722Y-6.5191
X6.2722Y-6.6191
X6.2722Y-6.7191
X8.5722Y-3.2191
X8.5722Y-3.3191
X8.5722Y-3.4191
X8.5722Y-3.5191
X8.5722Y-3.6191
X8.5722Y-3.7191
X8.5722Y-3.8191
X8.5722Y-3.9191
X8.5722Y-4.0191
X8.5722Y-4.1191
X8.5722Y-4.2191
X8.5722Y-4.3191
X8.5722Y-4.4191
X8.5722Y-4.5191
X8.5722Y-4.6191
X8.5722Y-4.7191
X8.5722Y-4.8191
X8.5722Y-4.9191
X8.5722Y-5.0191
X8.5722Y-5.1191
X8.5722Y-5.2191
X8.5722Y-5.3191
X8.5722Y-5.4191
X8.5722Y-5.5191
X8.5722Y-5.6191
X8.5722Y-5.7191
X8.5722Y-5.8191
X8.5722Y-5.9191
X8.5722Y-6.0191
X8.5722Y-6.1191
X8.5722Y-6.2191
X8.5722Y-6.3191
X8.5722Y-6.4191
X8.5722Y-6.5191
X8.5722Y-6.6191
X8.5722Y-6.7191
X8.6722Y-2.1191
X8.6722Y-2.2191
X8.6722Y-3.2191
X8.6722Y-3.3191
X8.6722Y-3.4191
X8.6722Y-3.5191
X8.6722Y-3.6191
X8.6722Y-3.7191
X8.6722Y-3.8191
X8.6722Y-3.9191
X8.6722Y-4.0191
X8.6722Y-4.1191
X8.6722Y-4.2191
X8.6722Y-4.3191
X8.6722Y-4.4191
X8.6722Y-4.5191
X8.6722Y-4.6191
X8.6722Y-4.7191
X8.6722Y-4.8191
X8.6722Y-4.9191
X8.6722Y-5.0191
X8.6722Y-5.1191
X8.6722Y-5.2191
X8.6722Y-5.3191
X8.6722Y-5.4191
X8.6722Y-5.5191
X8.6722Y-5.6191
X8.6722Y-5.7191
X8.6722Y-5.8191
X8.6722Y-5.9191
X8.6722Y-6.0191
X8.6722Y-6.1191
X8.6722Y-6.2191
X8.6722Y-6.3191
X8.6722Y-6.4191
X8.6722Y-6.5191
X8.6722Y-6.6191
X8.6722Y-6.7191
X9.1732Y-4.0701
X9.1732Y-4.1701
X9.1732Y-4.2701
X9.1732Y-4.3701
X9.1732Y-5.4874
X9.1732Y-5.5874
X9.1732Y-5.6874
X9.1732Y-5.7874
T4
X3.7008Y-7.0472
X3.8508Y-7.0472
X4.3307Y-7.0472
X4.4807Y-7.0472
T0
M30
