%FSLAX45Y45*%
G04 Gerber Fmt 4.5, Leading zero omitted, Abs format (unit mm)*
G04 Created by KiCad (PCBNEW (5.1.10)-1) date 2021-07-20 10:53:30*
%MOMM*%
%LPD*%
G01*
G04 APERTURE LIST*
%TA.AperFunction,Profile*%
%ADD10C,0.100000*%
%TD*%
%ADD11C,0.200000*%
%ADD12C,0.300000*%
G04 APERTURE END LIST*
D10*
X24500000Y-4500000D02*
X24500000Y-19200000D01*
X8000000Y-4500000D02*
X24500000Y-4500000D01*
X8000000Y-19200000D02*
X8000000Y-4500000D01*
X24500000Y-19200000D02*
X8000000Y-19200000D01*
D11*
D12*
X8281428Y-19670714D02*
X8281428Y-19370714D01*
X8352857Y-19370714D01*
X8395714Y-19385000D01*
X8424286Y-19413572D01*
X8438571Y-19442143D01*
X8452857Y-19499286D01*
X8452857Y-19542143D01*
X8438571Y-19599286D01*
X8424286Y-19627857D01*
X8395714Y-19656429D01*
X8352857Y-19670714D01*
X8281428Y-19670714D01*
X8581428Y-19670714D02*
X8581428Y-19470714D01*
X8581428Y-19527857D02*
X8595714Y-19499286D01*
X8610000Y-19485000D01*
X8638571Y-19470714D01*
X8667143Y-19470714D01*
X8767143Y-19670714D02*
X8767143Y-19470714D01*
X8767143Y-19370714D02*
X8752857Y-19385000D01*
X8767143Y-19399286D01*
X8781428Y-19385000D01*
X8767143Y-19370714D01*
X8767143Y-19399286D01*
X8952857Y-19670714D02*
X8924286Y-19656429D01*
X8910000Y-19627857D01*
X8910000Y-19370714D01*
X9110000Y-19670714D02*
X9081428Y-19656429D01*
X9067143Y-19627857D01*
X9067143Y-19370714D01*
X9452857Y-19670714D02*
X9452857Y-19370714D01*
X9552857Y-19585000D01*
X9652857Y-19370714D01*
X9652857Y-19670714D01*
X9924286Y-19670714D02*
X9924286Y-19513572D01*
X9910000Y-19485000D01*
X9881428Y-19470714D01*
X9824286Y-19470714D01*
X9795714Y-19485000D01*
X9924286Y-19656429D02*
X9895714Y-19670714D01*
X9824286Y-19670714D01*
X9795714Y-19656429D01*
X9781428Y-19627857D01*
X9781428Y-19599286D01*
X9795714Y-19570714D01*
X9824286Y-19556429D01*
X9895714Y-19556429D01*
X9924286Y-19542143D01*
X10067143Y-19470714D02*
X10067143Y-19770714D01*
X10067143Y-19485000D02*
X10095714Y-19470714D01*
X10152857Y-19470714D01*
X10181428Y-19485000D01*
X10195714Y-19499286D01*
X10210000Y-19527857D01*
X10210000Y-19613572D01*
X10195714Y-19642143D01*
X10181428Y-19656429D01*
X10152857Y-19670714D01*
X10095714Y-19670714D01*
X10067143Y-19656429D01*
X10338571Y-19642143D02*
X10352857Y-19656429D01*
X10338571Y-19670714D01*
X10324286Y-19656429D01*
X10338571Y-19642143D01*
X10338571Y-19670714D01*
X10338571Y-19485000D02*
X10352857Y-19499286D01*
X10338571Y-19513572D01*
X10324286Y-19499286D01*
X10338571Y-19485000D01*
X10338571Y-19513572D01*
M02*
