%FSLAX45Y45*%
G04 Gerber Fmt 4.5, Leading zero omitted, Abs format (unit mm)*
G04 Created by KiCad (PCBNEW (5.1.10)-1) date 2021-07-20 10:53:30*
%MOMM*%
%LPD*%
G01*
G04 APERTURE LIST*
%TA.AperFunction,Profile*%
%ADD10C,0.100000*%
%TD*%
%ADD11C,0.200000*%
%ADD12C,0.300000*%
G04 APERTURE END LIST*
D10*
X24500000Y-4500000D02*
X24500000Y-19200000D01*
X8000000Y-4500000D02*
X24500000Y-4500000D01*
X8000000Y-19200000D02*
X8000000Y-4500000D01*
X24500000Y-19200000D02*
X8000000Y-19200000D01*
D11*
X9330000Y-6630000D02*
X9370000Y-6670000D01*
X9370000Y-6630000D02*
X9330000Y-6670000D01*
X9880000Y-13580000D02*
X9920000Y-13620000D01*
X9920000Y-13580000D02*
X9880000Y-13620000D01*
X10280000Y-13880000D02*
X10320000Y-13920000D01*
X10320000Y-13880000D02*
X10280000Y-13920000D01*
X10480000Y-13580000D02*
X10520000Y-13620000D01*
X10520000Y-13580000D02*
X10480000Y-13620000D01*
X10630000Y-13880000D02*
X10670000Y-13920000D01*
X10670000Y-13880000D02*
X10630000Y-13920000D01*
X11030000Y-14480000D02*
X11070000Y-14520000D01*
X11070000Y-14480000D02*
X11030000Y-14520000D01*
X11230000Y-13407500D02*
X11270000Y-13447500D01*
X11270000Y-13407500D02*
X11230000Y-13447500D01*
X11380000Y-12980000D02*
X11420000Y-13020000D01*
X11420000Y-12980000D02*
X11380000Y-13020000D01*
X11580000Y-12480000D02*
X11620000Y-12520000D01*
X11620000Y-12480000D02*
X11580000Y-12520000D01*
X11680000Y-14480000D02*
X11720000Y-14520000D01*
X11720000Y-14480000D02*
X11680000Y-14520000D01*
X11780000Y-14080000D02*
X11820000Y-14120000D01*
X11820000Y-14080000D02*
X11780000Y-14120000D01*
X11880000Y-12180000D02*
X11920000Y-12220000D01*
X11920000Y-12180000D02*
X11880000Y-12220000D01*
X11907500Y-14180000D02*
X11947500Y-14220000D01*
X11947500Y-14180000D02*
X11907500Y-14220000D01*
X11980000Y-14780000D02*
X12020000Y-14820000D01*
X12020000Y-14780000D02*
X11980000Y-14820000D01*
X12030000Y-11730000D02*
X12070000Y-11770000D01*
X12070000Y-11730000D02*
X12030000Y-11770000D01*
X12078735Y-13678735D02*
X12118735Y-13718735D01*
X12118735Y-13678735D02*
X12078735Y-13718735D01*
X12078735Y-14978735D02*
X12118735Y-15018735D01*
X12118735Y-14978735D02*
X12078735Y-15018735D01*
X12308900Y-11989500D02*
X12348900Y-12029500D01*
X12348900Y-11989500D02*
X12308900Y-12029500D01*
X12308900Y-12116500D02*
X12348900Y-12156500D01*
X12348900Y-12116500D02*
X12308900Y-12156500D01*
X12308900Y-12243500D02*
X12348900Y-12283500D01*
X12348900Y-12243500D02*
X12308900Y-12283500D01*
X12308900Y-12370500D02*
X12348900Y-12410500D01*
X12348900Y-12370500D02*
X12308900Y-12410500D01*
X12308900Y-13889500D02*
X12348900Y-13929500D01*
X12348900Y-13889500D02*
X12308900Y-13929500D01*
X12308900Y-14016500D02*
X12348900Y-14056500D01*
X12348900Y-14016500D02*
X12308900Y-14056500D01*
X12308900Y-14143500D02*
X12348900Y-14183500D01*
X12348900Y-14143500D02*
X12308900Y-14183500D01*
X12308900Y-14270500D02*
X12348900Y-14310500D01*
X12348900Y-14270500D02*
X12308900Y-14310500D01*
X12380000Y-15080000D02*
X12420000Y-15120000D01*
X12420000Y-15080000D02*
X12380000Y-15120000D01*
X12851100Y-11989500D02*
X12891100Y-12029500D01*
X12891100Y-11989500D02*
X12851100Y-12029500D01*
X12851100Y-12116500D02*
X12891100Y-12156500D01*
X12891100Y-12116500D02*
X12851100Y-12156500D01*
X12851100Y-12243500D02*
X12891100Y-12283500D01*
X12891100Y-12243500D02*
X12851100Y-12283500D01*
X12851100Y-12370500D02*
X12891100Y-12410500D01*
X12891100Y-12370500D02*
X12851100Y-12410500D01*
X12851100Y-13889500D02*
X12891100Y-13929500D01*
X12891100Y-13889500D02*
X12851100Y-13929500D01*
X12851100Y-14016500D02*
X12891100Y-14056500D01*
X12891100Y-14016500D02*
X12851100Y-14056500D01*
X12851100Y-14143500D02*
X12891100Y-14183500D01*
X12891100Y-14143500D02*
X12851100Y-14183500D01*
X12851100Y-14270500D02*
X12891100Y-14310500D01*
X12891100Y-14270500D02*
X12851100Y-14310500D01*
X13030000Y-13052500D02*
X13070000Y-13092500D01*
X13070000Y-13052500D02*
X13030000Y-13092500D01*
X13080000Y-14880000D02*
X13120000Y-14920000D01*
X13120000Y-14880000D02*
X13080000Y-14920000D01*
X13130000Y-9630000D02*
X13170000Y-9670000D01*
X13170000Y-9630000D02*
X13130000Y-9670000D01*
X13130000Y-13980000D02*
X13170000Y-14020000D01*
X13170000Y-13980000D02*
X13130000Y-14020000D01*
X13580000Y-12530000D02*
X13620000Y-12570000D01*
X13620000Y-12530000D02*
X13580000Y-12570000D01*
X13580000Y-14280000D02*
X13620000Y-14320000D01*
X13620000Y-14280000D02*
X13580000Y-14320000D01*
X13630000Y-12230000D02*
X13670000Y-12270000D01*
X13670000Y-12230000D02*
X13630000Y-12270000D01*
X13680000Y-13980000D02*
X13720000Y-14020000D01*
X13720000Y-13980000D02*
X13680000Y-14020000D01*
X14076500Y-14983500D02*
X14116500Y-15023500D01*
X14116500Y-14983500D02*
X14076500Y-15023500D01*
X14080000Y-12780000D02*
X14120000Y-12820000D01*
X14120000Y-12780000D02*
X14080000Y-12820000D01*
X14180000Y-12430000D02*
X14220000Y-12470000D01*
X14220000Y-12430000D02*
X14180000Y-12470000D01*
X14180000Y-14630000D02*
X14220000Y-14670000D01*
X14220000Y-14630000D02*
X14180000Y-14670000D01*
X14180000Y-14930000D02*
X14220000Y-14970000D01*
X14220000Y-14930000D02*
X14180000Y-14970000D01*
X14780000Y-17080000D02*
X14820000Y-17120000D01*
X14820000Y-17080000D02*
X14780000Y-17120000D01*
X14907500Y-16080000D02*
X14947500Y-16120000D01*
X14947500Y-16080000D02*
X14907500Y-16120000D01*
X14980000Y-16380000D02*
X15020000Y-16420000D01*
X15020000Y-16380000D02*
X14980000Y-16420000D01*
X15430000Y-16530000D02*
X15470000Y-16570000D01*
X15470000Y-16530000D02*
X15430000Y-16570000D01*
X21180000Y-16957500D02*
X21220000Y-16997500D01*
X21220000Y-16957500D02*
X21180000Y-16997500D01*
X21380000Y-15280000D02*
X21420000Y-15320000D01*
X21420000Y-15280000D02*
X21380000Y-15320000D01*
X22530000Y-17030000D02*
X22570000Y-17070000D01*
X22570000Y-17030000D02*
X22530000Y-17070000D01*
X22730000Y-15730000D02*
X22770000Y-15770000D01*
X22770000Y-15730000D02*
X22730000Y-15770000D01*
X22980000Y-12380000D02*
X23020000Y-12420000D01*
X23020000Y-12380000D02*
X22980000Y-12420000D01*
X23080000Y-12657500D02*
X23120000Y-12697500D01*
X23120000Y-12657500D02*
X23080000Y-12697500D01*
X23110000Y-12310000D02*
X23150000Y-12350000D01*
X23150000Y-12310000D02*
X23110000Y-12350000D01*
X23580000Y-14180000D02*
X23620000Y-14220000D01*
X23620000Y-14180000D02*
X23580000Y-14220000D01*
X12140000Y-15692000D02*
G75*
G03*
X12140000Y-15692000I-40000J0D01*
G01*
X12140000Y-16200000D02*
G75*
G03*
X12140000Y-16200000I-40000J0D01*
G01*
X12140000Y-16692000D02*
G75*
G03*
X12140000Y-16692000I-40000J0D01*
G01*
X12140000Y-17200000D02*
G75*
G03*
X12140000Y-17200000I-40000J0D01*
G01*
X12240000Y-12800000D02*
G75*
G03*
X12240000Y-12800000I-40000J0D01*
G01*
X12240000Y-14600000D02*
G75*
G03*
X12240000Y-14600000I-40000J0D01*
G01*
X12740000Y-15500000D02*
G75*
G03*
X12740000Y-15500000I-40000J0D01*
G01*
X12740000Y-16262000D02*
G75*
G03*
X12740000Y-16262000I-40000J0D01*
G01*
X12740000Y-16600000D02*
G75*
G03*
X12740000Y-16600000I-40000J0D01*
G01*
X12740000Y-17362000D02*
G75*
G03*
X12740000Y-17362000I-40000J0D01*
G01*
X13002000Y-12800000D02*
G75*
G03*
X13002000Y-12800000I-40000J0D01*
G01*
X13002000Y-14600000D02*
G75*
G03*
X13002000Y-14600000I-40000J0D01*
G01*
X13340000Y-16000000D02*
G75*
G03*
X13340000Y-16000000I-40000J0D01*
G01*
X13340000Y-16254000D02*
G75*
G03*
X13340000Y-16254000I-40000J0D01*
G01*
X13340000Y-16508000D02*
G75*
G03*
X13340000Y-16508000I-40000J0D01*
G01*
X13340000Y-16762000D02*
G75*
G03*
X13340000Y-16762000I-40000J0D01*
G01*
X14102000Y-16000000D02*
G75*
G03*
X14102000Y-16000000I-40000J0D01*
G01*
X14102000Y-16254000D02*
G75*
G03*
X14102000Y-16254000I-40000J0D01*
G01*
X14102000Y-16508000D02*
G75*
G03*
X14102000Y-16508000I-40000J0D01*
G01*
X14102000Y-16762000D02*
G75*
G03*
X14102000Y-16762000I-40000J0D01*
G01*
X9550000Y-11884000D02*
X9550000Y-11984000D01*
X9500000Y-11934000D02*
X9600000Y-11934000D01*
X9550000Y-12138000D02*
X9550000Y-12238000D01*
X9500000Y-12188000D02*
X9600000Y-12188000D01*
X9550000Y-12392000D02*
X9550000Y-12492000D01*
X9500000Y-12442000D02*
X9600000Y-12442000D01*
X9550000Y-12646000D02*
X9550000Y-12746000D01*
X9500000Y-12696000D02*
X9600000Y-12696000D01*
X9550000Y-12900000D02*
X9550000Y-13000000D01*
X9500000Y-12950000D02*
X9600000Y-12950000D01*
X9550000Y-13784000D02*
X9550000Y-13884000D01*
X9500000Y-13834000D02*
X9600000Y-13834000D01*
X9550000Y-14038000D02*
X9550000Y-14138000D01*
X9500000Y-14088000D02*
X9600000Y-14088000D01*
X9550000Y-14292000D02*
X9550000Y-14392000D01*
X9500000Y-14342000D02*
X9600000Y-14342000D01*
X9550000Y-14546000D02*
X9550000Y-14646000D01*
X9500000Y-14596000D02*
X9600000Y-14596000D01*
X9550000Y-14800000D02*
X9550000Y-14900000D01*
X9500000Y-14850000D02*
X9600000Y-14850000D01*
X9646000Y-5650000D02*
X9646000Y-5750000D01*
X9596000Y-5700000D02*
X9696000Y-5700000D01*
X9646000Y-5904000D02*
X9646000Y-6004000D01*
X9596000Y-5954000D02*
X9696000Y-5954000D01*
X9646000Y-6158000D02*
X9646000Y-6258000D01*
X9596000Y-6208000D02*
X9696000Y-6208000D01*
X9646000Y-6412000D02*
X9646000Y-6512000D01*
X9596000Y-6462000D02*
X9696000Y-6462000D01*
X9646000Y-6666000D02*
X9646000Y-6766000D01*
X9596000Y-6716000D02*
X9696000Y-6716000D01*
X9646000Y-6920000D02*
X9646000Y-7020000D01*
X9596000Y-6970000D02*
X9696000Y-6970000D01*
X9646000Y-7174000D02*
X9646000Y-7274000D01*
X9596000Y-7224000D02*
X9696000Y-7224000D01*
X9646000Y-7428000D02*
X9646000Y-7528000D01*
X9596000Y-7478000D02*
X9696000Y-7478000D01*
X9646000Y-7682000D02*
X9646000Y-7782000D01*
X9596000Y-7732000D02*
X9696000Y-7732000D01*
X9646000Y-7936000D02*
X9646000Y-8036000D01*
X9596000Y-7986000D02*
X9696000Y-7986000D01*
X9646000Y-8190000D02*
X9646000Y-8290000D01*
X9596000Y-8240000D02*
X9696000Y-8240000D01*
X9646000Y-8444000D02*
X9646000Y-8544000D01*
X9596000Y-8494000D02*
X9696000Y-8494000D01*
X9646000Y-8698000D02*
X9646000Y-8798000D01*
X9596000Y-8748000D02*
X9696000Y-8748000D01*
X9646000Y-8952000D02*
X9646000Y-9052000D01*
X9596000Y-9002000D02*
X9696000Y-9002000D01*
X9646000Y-9206000D02*
X9646000Y-9306000D01*
X9596000Y-9256000D02*
X9696000Y-9256000D01*
X9646000Y-9460000D02*
X9646000Y-9560000D01*
X9596000Y-9510000D02*
X9696000Y-9510000D01*
X9646000Y-9714000D02*
X9646000Y-9814000D01*
X9596000Y-9764000D02*
X9696000Y-9764000D01*
X9646000Y-9968000D02*
X9646000Y-10068000D01*
X9596000Y-10018000D02*
X9696000Y-10018000D01*
X9646000Y-10222000D02*
X9646000Y-10322000D01*
X9596000Y-10272000D02*
X9696000Y-10272000D01*
X9646000Y-10476000D02*
X9646000Y-10576000D01*
X9596000Y-10526000D02*
X9696000Y-10526000D01*
X9646000Y-10730000D02*
X9646000Y-10830000D01*
X9596000Y-10780000D02*
X9696000Y-10780000D01*
X9646000Y-10984000D02*
X9646000Y-11084000D01*
X9596000Y-11034000D02*
X9696000Y-11034000D01*
X9900000Y-5650000D02*
X9900000Y-5750000D01*
X9850000Y-5700000D02*
X9950000Y-5700000D01*
X9900000Y-5904000D02*
X9900000Y-6004000D01*
X9850000Y-5954000D02*
X9950000Y-5954000D01*
X9900000Y-6158000D02*
X9900000Y-6258000D01*
X9850000Y-6208000D02*
X9950000Y-6208000D01*
X9900000Y-6412000D02*
X9900000Y-6512000D01*
X9850000Y-6462000D02*
X9950000Y-6462000D01*
X9900000Y-6666000D02*
X9900000Y-6766000D01*
X9850000Y-6716000D02*
X9950000Y-6716000D01*
X9900000Y-6920000D02*
X9900000Y-7020000D01*
X9850000Y-6970000D02*
X9950000Y-6970000D01*
X9900000Y-7174000D02*
X9900000Y-7274000D01*
X9850000Y-7224000D02*
X9950000Y-7224000D01*
X9900000Y-7428000D02*
X9900000Y-7528000D01*
X9850000Y-7478000D02*
X9950000Y-7478000D01*
X9900000Y-7682000D02*
X9900000Y-7782000D01*
X9850000Y-7732000D02*
X9950000Y-7732000D01*
X9900000Y-7936000D02*
X9900000Y-8036000D01*
X9850000Y-7986000D02*
X9950000Y-7986000D01*
X9900000Y-8190000D02*
X9900000Y-8290000D01*
X9850000Y-8240000D02*
X9950000Y-8240000D01*
X9900000Y-8444000D02*
X9900000Y-8544000D01*
X9850000Y-8494000D02*
X9950000Y-8494000D01*
X9900000Y-8698000D02*
X9900000Y-8798000D01*
X9850000Y-8748000D02*
X9950000Y-8748000D01*
X9900000Y-8952000D02*
X9900000Y-9052000D01*
X9850000Y-9002000D02*
X9950000Y-9002000D01*
X9900000Y-9206000D02*
X9900000Y-9306000D01*
X9850000Y-9256000D02*
X9950000Y-9256000D01*
X9900000Y-9460000D02*
X9900000Y-9560000D01*
X9850000Y-9510000D02*
X9950000Y-9510000D01*
X9900000Y-9714000D02*
X9900000Y-9814000D01*
X9850000Y-9764000D02*
X9950000Y-9764000D01*
X9900000Y-9968000D02*
X9900000Y-10068000D01*
X9850000Y-10018000D02*
X9950000Y-10018000D01*
X9900000Y-10222000D02*
X9900000Y-10322000D01*
X9850000Y-10272000D02*
X9950000Y-10272000D01*
X9900000Y-10476000D02*
X9900000Y-10576000D01*
X9850000Y-10526000D02*
X9950000Y-10526000D01*
X9900000Y-10730000D02*
X9900000Y-10830000D01*
X9850000Y-10780000D02*
X9950000Y-10780000D01*
X9900000Y-10984000D02*
X9900000Y-11084000D01*
X9850000Y-11034000D02*
X9950000Y-11034000D01*
X11046000Y-15934000D02*
X11046000Y-16034000D01*
X10996000Y-15984000D02*
X11096000Y-15984000D01*
X11046000Y-16188000D02*
X11046000Y-16288000D01*
X10996000Y-16238000D02*
X11096000Y-16238000D01*
X11046000Y-16442000D02*
X11046000Y-16542000D01*
X10996000Y-16492000D02*
X11096000Y-16492000D01*
X11046000Y-16696000D02*
X11046000Y-16796000D01*
X10996000Y-16746000D02*
X11096000Y-16746000D01*
X11046000Y-16950000D02*
X11046000Y-17050000D01*
X10996000Y-17000000D02*
X11096000Y-17000000D01*
X11300000Y-15934000D02*
X11300000Y-16034000D01*
X11250000Y-15984000D02*
X11350000Y-15984000D01*
X11300000Y-16188000D02*
X11300000Y-16288000D01*
X11250000Y-16238000D02*
X11350000Y-16238000D01*
X11300000Y-16442000D02*
X11300000Y-16542000D01*
X11250000Y-16492000D02*
X11350000Y-16492000D01*
X11300000Y-16696000D02*
X11300000Y-16796000D01*
X11250000Y-16746000D02*
X11350000Y-16746000D01*
X11300000Y-16950000D02*
X11300000Y-17050000D01*
X11250000Y-17000000D02*
X11350000Y-17000000D01*
X13960000Y-5650000D02*
X13960000Y-5750000D01*
X13910000Y-5700000D02*
X14010000Y-5700000D01*
X13960000Y-5904000D02*
X13960000Y-6004000D01*
X13910000Y-5954000D02*
X14010000Y-5954000D01*
X13960000Y-6158000D02*
X13960000Y-6258000D01*
X13910000Y-6208000D02*
X14010000Y-6208000D01*
X13960000Y-6412000D02*
X13960000Y-6512000D01*
X13910000Y-6462000D02*
X14010000Y-6462000D01*
X13960000Y-6666000D02*
X13960000Y-6766000D01*
X13910000Y-6716000D02*
X14010000Y-6716000D01*
X13960000Y-6920000D02*
X13960000Y-7020000D01*
X13910000Y-6970000D02*
X14010000Y-6970000D01*
X13960000Y-7174000D02*
X13960000Y-7274000D01*
X13910000Y-7224000D02*
X14010000Y-7224000D01*
X13960000Y-7428000D02*
X13960000Y-7528000D01*
X13910000Y-7478000D02*
X14010000Y-7478000D01*
X13960000Y-7682000D02*
X13960000Y-7782000D01*
X13910000Y-7732000D02*
X14010000Y-7732000D01*
X13960000Y-7936000D02*
X13960000Y-8036000D01*
X13910000Y-7986000D02*
X14010000Y-7986000D01*
X13960000Y-8190000D02*
X13960000Y-8290000D01*
X13910000Y-8240000D02*
X14010000Y-8240000D01*
X13960000Y-8444000D02*
X13960000Y-8544000D01*
X13910000Y-8494000D02*
X14010000Y-8494000D01*
X13960000Y-8698000D02*
X13960000Y-8798000D01*
X13910000Y-8748000D02*
X14010000Y-8748000D01*
X13960000Y-8952000D02*
X13960000Y-9052000D01*
X13910000Y-9002000D02*
X14010000Y-9002000D01*
X13960000Y-9206000D02*
X13960000Y-9306000D01*
X13910000Y-9256000D02*
X14010000Y-9256000D01*
X13960000Y-9460000D02*
X13960000Y-9560000D01*
X13910000Y-9510000D02*
X14010000Y-9510000D01*
X13960000Y-9714000D02*
X13960000Y-9814000D01*
X13910000Y-9764000D02*
X14010000Y-9764000D01*
X13960000Y-9968000D02*
X13960000Y-10068000D01*
X13910000Y-10018000D02*
X14010000Y-10018000D01*
X13960000Y-10222000D02*
X13960000Y-10322000D01*
X13910000Y-10272000D02*
X14010000Y-10272000D01*
X13960000Y-10476000D02*
X13960000Y-10576000D01*
X13910000Y-10526000D02*
X14010000Y-10526000D01*
X13960000Y-10730000D02*
X13960000Y-10830000D01*
X13910000Y-10780000D02*
X14010000Y-10780000D01*
X13960000Y-10984000D02*
X13960000Y-11084000D01*
X13910000Y-11034000D02*
X14010000Y-11034000D01*
X14214000Y-5650000D02*
X14214000Y-5750000D01*
X14164000Y-5700000D02*
X14264000Y-5700000D01*
X14214000Y-5904000D02*
X14214000Y-6004000D01*
X14164000Y-5954000D02*
X14264000Y-5954000D01*
X14214000Y-6158000D02*
X14214000Y-6258000D01*
X14164000Y-6208000D02*
X14264000Y-6208000D01*
X14214000Y-6412000D02*
X14214000Y-6512000D01*
X14164000Y-6462000D02*
X14264000Y-6462000D01*
X14214000Y-6666000D02*
X14214000Y-6766000D01*
X14164000Y-6716000D02*
X14264000Y-6716000D01*
X14214000Y-6920000D02*
X14214000Y-7020000D01*
X14164000Y-6970000D02*
X14264000Y-6970000D01*
X14214000Y-7174000D02*
X14214000Y-7274000D01*
X14164000Y-7224000D02*
X14264000Y-7224000D01*
X14214000Y-7428000D02*
X14214000Y-7528000D01*
X14164000Y-7478000D02*
X14264000Y-7478000D01*
X14214000Y-7682000D02*
X14214000Y-7782000D01*
X14164000Y-7732000D02*
X14264000Y-7732000D01*
X14214000Y-7936000D02*
X14214000Y-8036000D01*
X14164000Y-7986000D02*
X14264000Y-7986000D01*
X14214000Y-8190000D02*
X14214000Y-8290000D01*
X14164000Y-8240000D02*
X14264000Y-8240000D01*
X14214000Y-8444000D02*
X14214000Y-8544000D01*
X14164000Y-8494000D02*
X14264000Y-8494000D01*
X14214000Y-8698000D02*
X14214000Y-8798000D01*
X14164000Y-8748000D02*
X14264000Y-8748000D01*
X14214000Y-8952000D02*
X14214000Y-9052000D01*
X14164000Y-9002000D02*
X14264000Y-9002000D01*
X14214000Y-9206000D02*
X14214000Y-9306000D01*
X14164000Y-9256000D02*
X14264000Y-9256000D01*
X14214000Y-9460000D02*
X14214000Y-9560000D01*
X14164000Y-9510000D02*
X14264000Y-9510000D01*
X14214000Y-9714000D02*
X14214000Y-9814000D01*
X14164000Y-9764000D02*
X14264000Y-9764000D01*
X14214000Y-9968000D02*
X14214000Y-10068000D01*
X14164000Y-10018000D02*
X14264000Y-10018000D01*
X14214000Y-10222000D02*
X14214000Y-10322000D01*
X14164000Y-10272000D02*
X14264000Y-10272000D01*
X14214000Y-10476000D02*
X14214000Y-10576000D01*
X14164000Y-10526000D02*
X14264000Y-10526000D01*
X14214000Y-10730000D02*
X14214000Y-10830000D01*
X14164000Y-10780000D02*
X14264000Y-10780000D01*
X14214000Y-10984000D02*
X14214000Y-11084000D01*
X14164000Y-11034000D02*
X14264000Y-11034000D01*
X15677500Y-5332500D02*
X15677500Y-5432500D01*
X15627500Y-5382500D02*
X15727500Y-5382500D01*
X15677500Y-5586500D02*
X15677500Y-5686500D01*
X15627500Y-5636500D02*
X15727500Y-5636500D01*
X15677500Y-8126500D02*
X15677500Y-8226500D01*
X15627500Y-8176500D02*
X15727500Y-8176500D01*
X15677500Y-8380500D02*
X15677500Y-8480500D01*
X15627500Y-8430500D02*
X15727500Y-8430500D01*
X15677500Y-8634500D02*
X15677500Y-8734500D01*
X15627500Y-8684500D02*
X15727500Y-8684500D01*
X15677500Y-8888500D02*
X15677500Y-8988500D01*
X15627500Y-8938500D02*
X15727500Y-8938500D01*
X15677500Y-9142500D02*
X15677500Y-9242500D01*
X15627500Y-9192500D02*
X15727500Y-9192500D01*
X15677500Y-9396500D02*
X15677500Y-9496500D01*
X15627500Y-9446500D02*
X15727500Y-9446500D01*
X15677500Y-9650500D02*
X15677500Y-9750500D01*
X15627500Y-9700500D02*
X15727500Y-9700500D01*
X15677500Y-9904500D02*
X15677500Y-10004500D01*
X15627500Y-9954500D02*
X15727500Y-9954500D01*
X15677500Y-10158500D02*
X15677500Y-10258500D01*
X15627500Y-10208500D02*
X15727500Y-10208500D01*
X15677500Y-10412500D02*
X15677500Y-10512500D01*
X15627500Y-10462500D02*
X15727500Y-10462500D01*
X15677500Y-10666500D02*
X15677500Y-10766500D01*
X15627500Y-10716500D02*
X15727500Y-10716500D01*
X15677500Y-10920500D02*
X15677500Y-11020500D01*
X15627500Y-10970500D02*
X15727500Y-10970500D01*
X15677500Y-11174500D02*
X15677500Y-11274500D01*
X15627500Y-11224500D02*
X15727500Y-11224500D01*
X15677500Y-11428500D02*
X15677500Y-11528500D01*
X15627500Y-11478500D02*
X15727500Y-11478500D01*
X15677500Y-11682500D02*
X15677500Y-11782500D01*
X15627500Y-11732500D02*
X15727500Y-11732500D01*
X15677500Y-11936500D02*
X15677500Y-12036500D01*
X15627500Y-11986500D02*
X15727500Y-11986500D01*
X15677500Y-12190500D02*
X15677500Y-12290500D01*
X15627500Y-12240500D02*
X15727500Y-12240500D01*
X15677500Y-12444500D02*
X15677500Y-12544500D01*
X15627500Y-12494500D02*
X15727500Y-12494500D01*
X15677500Y-12698500D02*
X15677500Y-12798500D01*
X15627500Y-12748500D02*
X15727500Y-12748500D01*
X15677500Y-12952500D02*
X15677500Y-13052500D01*
X15627500Y-13002500D02*
X15727500Y-13002500D01*
X15677500Y-13206500D02*
X15677500Y-13306500D01*
X15627500Y-13256500D02*
X15727500Y-13256500D01*
X15677500Y-13460500D02*
X15677500Y-13560500D01*
X15627500Y-13510500D02*
X15727500Y-13510500D01*
X15677500Y-13714500D02*
X15677500Y-13814500D01*
X15627500Y-13764500D02*
X15727500Y-13764500D01*
X15677500Y-13968500D02*
X15677500Y-14068500D01*
X15627500Y-14018500D02*
X15727500Y-14018500D01*
X15677500Y-14222500D02*
X15677500Y-14322500D01*
X15627500Y-14272500D02*
X15727500Y-14272500D01*
X15677500Y-14476500D02*
X15677500Y-14576500D01*
X15627500Y-14526500D02*
X15727500Y-14526500D01*
X15677500Y-14730500D02*
X15677500Y-14830500D01*
X15627500Y-14780500D02*
X15727500Y-14780500D01*
X15677500Y-14984500D02*
X15677500Y-15084500D01*
X15627500Y-15034500D02*
X15727500Y-15034500D01*
X15677500Y-15238500D02*
X15677500Y-15338500D01*
X15627500Y-15288500D02*
X15727500Y-15288500D01*
X15677500Y-15492500D02*
X15677500Y-15592500D01*
X15627500Y-15542500D02*
X15727500Y-15542500D01*
X15677500Y-15746500D02*
X15677500Y-15846500D01*
X15627500Y-15796500D02*
X15727500Y-15796500D01*
X15677500Y-16000500D02*
X15677500Y-16100500D01*
X15627500Y-16050500D02*
X15727500Y-16050500D01*
X15677500Y-16254500D02*
X15677500Y-16354500D01*
X15627500Y-16304500D02*
X15727500Y-16304500D01*
X15677500Y-16508500D02*
X15677500Y-16608500D01*
X15627500Y-16558500D02*
X15727500Y-16558500D01*
X15677500Y-16762500D02*
X15677500Y-16862500D01*
X15627500Y-16812500D02*
X15727500Y-16812500D01*
X15677500Y-17016500D02*
X15677500Y-17116500D01*
X15627500Y-17066500D02*
X15727500Y-17066500D01*
X15931500Y-8126500D02*
X15931500Y-8226500D01*
X15881500Y-8176500D02*
X15981500Y-8176500D01*
X15931500Y-8380500D02*
X15931500Y-8480500D01*
X15881500Y-8430500D02*
X15981500Y-8430500D01*
X15931500Y-8634500D02*
X15931500Y-8734500D01*
X15881500Y-8684500D02*
X15981500Y-8684500D01*
X15931500Y-8888500D02*
X15931500Y-8988500D01*
X15881500Y-8938500D02*
X15981500Y-8938500D01*
X15931500Y-9142500D02*
X15931500Y-9242500D01*
X15881500Y-9192500D02*
X15981500Y-9192500D01*
X15931500Y-9396500D02*
X15931500Y-9496500D01*
X15881500Y-9446500D02*
X15981500Y-9446500D01*
X15931500Y-9650500D02*
X15931500Y-9750500D01*
X15881500Y-9700500D02*
X15981500Y-9700500D01*
X15931500Y-9904500D02*
X15931500Y-10004500D01*
X15881500Y-9954500D02*
X15981500Y-9954500D01*
X15931500Y-10158500D02*
X15931500Y-10258500D01*
X15881500Y-10208500D02*
X15981500Y-10208500D01*
X15931500Y-10412500D02*
X15931500Y-10512500D01*
X15881500Y-10462500D02*
X15981500Y-10462500D01*
X15931500Y-10666500D02*
X15931500Y-10766500D01*
X15881500Y-10716500D02*
X15981500Y-10716500D01*
X15931500Y-10920500D02*
X15931500Y-11020500D01*
X15881500Y-10970500D02*
X15981500Y-10970500D01*
X15931500Y-11174500D02*
X15931500Y-11274500D01*
X15881500Y-11224500D02*
X15981500Y-11224500D01*
X15931500Y-11428500D02*
X15931500Y-11528500D01*
X15881500Y-11478500D02*
X15981500Y-11478500D01*
X15931500Y-11682500D02*
X15931500Y-11782500D01*
X15881500Y-11732500D02*
X15981500Y-11732500D01*
X15931500Y-11936500D02*
X15931500Y-12036500D01*
X15881500Y-11986500D02*
X15981500Y-11986500D01*
X15931500Y-12190500D02*
X15931500Y-12290500D01*
X15881500Y-12240500D02*
X15981500Y-12240500D01*
X15931500Y-12444500D02*
X15931500Y-12544500D01*
X15881500Y-12494500D02*
X15981500Y-12494500D01*
X15931500Y-12698500D02*
X15931500Y-12798500D01*
X15881500Y-12748500D02*
X15981500Y-12748500D01*
X15931500Y-12952500D02*
X15931500Y-13052500D01*
X15881500Y-13002500D02*
X15981500Y-13002500D01*
X15931500Y-13206500D02*
X15931500Y-13306500D01*
X15881500Y-13256500D02*
X15981500Y-13256500D01*
X15931500Y-13460500D02*
X15931500Y-13560500D01*
X15881500Y-13510500D02*
X15981500Y-13510500D01*
X15931500Y-13714500D02*
X15931500Y-13814500D01*
X15881500Y-13764500D02*
X15981500Y-13764500D01*
X15931500Y-13968500D02*
X15931500Y-14068500D01*
X15881500Y-14018500D02*
X15981500Y-14018500D01*
X15931500Y-14222500D02*
X15931500Y-14322500D01*
X15881500Y-14272500D02*
X15981500Y-14272500D01*
X15931500Y-14476500D02*
X15931500Y-14576500D01*
X15881500Y-14526500D02*
X15981500Y-14526500D01*
X15931500Y-14730500D02*
X15931500Y-14830500D01*
X15881500Y-14780500D02*
X15981500Y-14780500D01*
X15931500Y-14984500D02*
X15931500Y-15084500D01*
X15881500Y-15034500D02*
X15981500Y-15034500D01*
X15931500Y-15238500D02*
X15931500Y-15338500D01*
X15881500Y-15288500D02*
X15981500Y-15288500D01*
X15931500Y-15492500D02*
X15931500Y-15592500D01*
X15881500Y-15542500D02*
X15981500Y-15542500D01*
X15931500Y-15746500D02*
X15931500Y-15846500D01*
X15881500Y-15796500D02*
X15981500Y-15796500D01*
X15931500Y-16000500D02*
X15931500Y-16100500D01*
X15881500Y-16050500D02*
X15981500Y-16050500D01*
X15931500Y-16254500D02*
X15931500Y-16354500D01*
X15881500Y-16304500D02*
X15981500Y-16304500D01*
X15931500Y-16508500D02*
X15931500Y-16608500D01*
X15881500Y-16558500D02*
X15981500Y-16558500D01*
X15931500Y-16762500D02*
X15931500Y-16862500D01*
X15881500Y-16812500D02*
X15981500Y-16812500D01*
X15931500Y-17016500D02*
X15931500Y-17116500D01*
X15881500Y-17066500D02*
X15981500Y-17066500D01*
X21773500Y-8126500D02*
X21773500Y-8226500D01*
X21723500Y-8176500D02*
X21823500Y-8176500D01*
X21773500Y-8380500D02*
X21773500Y-8480500D01*
X21723500Y-8430500D02*
X21823500Y-8430500D01*
X21773500Y-8634500D02*
X21773500Y-8734500D01*
X21723500Y-8684500D02*
X21823500Y-8684500D01*
X21773500Y-8888500D02*
X21773500Y-8988500D01*
X21723500Y-8938500D02*
X21823500Y-8938500D01*
X21773500Y-9142500D02*
X21773500Y-9242500D01*
X21723500Y-9192500D02*
X21823500Y-9192500D01*
X21773500Y-9396500D02*
X21773500Y-9496500D01*
X21723500Y-9446500D02*
X21823500Y-9446500D01*
X21773500Y-9650500D02*
X21773500Y-9750500D01*
X21723500Y-9700500D02*
X21823500Y-9700500D01*
X21773500Y-9904500D02*
X21773500Y-10004500D01*
X21723500Y-9954500D02*
X21823500Y-9954500D01*
X21773500Y-10158500D02*
X21773500Y-10258500D01*
X21723500Y-10208500D02*
X21823500Y-10208500D01*
X21773500Y-10412500D02*
X21773500Y-10512500D01*
X21723500Y-10462500D02*
X21823500Y-10462500D01*
X21773500Y-10666500D02*
X21773500Y-10766500D01*
X21723500Y-10716500D02*
X21823500Y-10716500D01*
X21773500Y-10920500D02*
X21773500Y-11020500D01*
X21723500Y-10970500D02*
X21823500Y-10970500D01*
X21773500Y-11174500D02*
X21773500Y-11274500D01*
X21723500Y-11224500D02*
X21823500Y-11224500D01*
X21773500Y-11428500D02*
X21773500Y-11528500D01*
X21723500Y-11478500D02*
X21823500Y-11478500D01*
X21773500Y-11682500D02*
X21773500Y-11782500D01*
X21723500Y-11732500D02*
X21823500Y-11732500D01*
X21773500Y-11936500D02*
X21773500Y-12036500D01*
X21723500Y-11986500D02*
X21823500Y-11986500D01*
X21773500Y-12190500D02*
X21773500Y-12290500D01*
X21723500Y-12240500D02*
X21823500Y-12240500D01*
X21773500Y-12444500D02*
X21773500Y-12544500D01*
X21723500Y-12494500D02*
X21823500Y-12494500D01*
X21773500Y-12698500D02*
X21773500Y-12798500D01*
X21723500Y-12748500D02*
X21823500Y-12748500D01*
X21773500Y-12952500D02*
X21773500Y-13052500D01*
X21723500Y-13002500D02*
X21823500Y-13002500D01*
X21773500Y-13206500D02*
X21773500Y-13306500D01*
X21723500Y-13256500D02*
X21823500Y-13256500D01*
X21773500Y-13460500D02*
X21773500Y-13560500D01*
X21723500Y-13510500D02*
X21823500Y-13510500D01*
X21773500Y-13714500D02*
X21773500Y-13814500D01*
X21723500Y-13764500D02*
X21823500Y-13764500D01*
X21773500Y-13968500D02*
X21773500Y-14068500D01*
X21723500Y-14018500D02*
X21823500Y-14018500D01*
X21773500Y-14222500D02*
X21773500Y-14322500D01*
X21723500Y-14272500D02*
X21823500Y-14272500D01*
X21773500Y-14476500D02*
X21773500Y-14576500D01*
X21723500Y-14526500D02*
X21823500Y-14526500D01*
X21773500Y-14730500D02*
X21773500Y-14830500D01*
X21723500Y-14780500D02*
X21823500Y-14780500D01*
X21773500Y-14984500D02*
X21773500Y-15084500D01*
X21723500Y-15034500D02*
X21823500Y-15034500D01*
X21773500Y-15238500D02*
X21773500Y-15338500D01*
X21723500Y-15288500D02*
X21823500Y-15288500D01*
X21773500Y-15492500D02*
X21773500Y-15592500D01*
X21723500Y-15542500D02*
X21823500Y-15542500D01*
X21773500Y-15746500D02*
X21773500Y-15846500D01*
X21723500Y-15796500D02*
X21823500Y-15796500D01*
X21773500Y-16000500D02*
X21773500Y-16100500D01*
X21723500Y-16050500D02*
X21823500Y-16050500D01*
X21773500Y-16254500D02*
X21773500Y-16354500D01*
X21723500Y-16304500D02*
X21823500Y-16304500D01*
X21773500Y-16508500D02*
X21773500Y-16608500D01*
X21723500Y-16558500D02*
X21823500Y-16558500D01*
X21773500Y-16762500D02*
X21773500Y-16862500D01*
X21723500Y-16812500D02*
X21823500Y-16812500D01*
X21773500Y-17016500D02*
X21773500Y-17116500D01*
X21723500Y-17066500D02*
X21823500Y-17066500D01*
X22027500Y-5332500D02*
X22027500Y-5432500D01*
X21977500Y-5382500D02*
X22077500Y-5382500D01*
X22027500Y-5586500D02*
X22027500Y-5686500D01*
X21977500Y-5636500D02*
X22077500Y-5636500D01*
X22027500Y-8126500D02*
X22027500Y-8226500D01*
X21977500Y-8176500D02*
X22077500Y-8176500D01*
X22027500Y-8380500D02*
X22027500Y-8480500D01*
X21977500Y-8430500D02*
X22077500Y-8430500D01*
X22027500Y-8634500D02*
X22027500Y-8734500D01*
X21977500Y-8684500D02*
X22077500Y-8684500D01*
X22027500Y-8888500D02*
X22027500Y-8988500D01*
X21977500Y-8938500D02*
X22077500Y-8938500D01*
X22027500Y-9142500D02*
X22027500Y-9242500D01*
X21977500Y-9192500D02*
X22077500Y-9192500D01*
X22027500Y-9396500D02*
X22027500Y-9496500D01*
X21977500Y-9446500D02*
X22077500Y-9446500D01*
X22027500Y-9650500D02*
X22027500Y-9750500D01*
X21977500Y-9700500D02*
X22077500Y-9700500D01*
X22027500Y-9904500D02*
X22027500Y-10004500D01*
X21977500Y-9954500D02*
X22077500Y-9954500D01*
X22027500Y-10158500D02*
X22027500Y-10258500D01*
X21977500Y-10208500D02*
X22077500Y-10208500D01*
X22027500Y-10412500D02*
X22027500Y-10512500D01*
X21977500Y-10462500D02*
X22077500Y-10462500D01*
X22027500Y-10666500D02*
X22027500Y-10766500D01*
X21977500Y-10716500D02*
X22077500Y-10716500D01*
X22027500Y-10920500D02*
X22027500Y-11020500D01*
X21977500Y-10970500D02*
X22077500Y-10970500D01*
X22027500Y-11174500D02*
X22027500Y-11274500D01*
X21977500Y-11224500D02*
X22077500Y-11224500D01*
X22027500Y-11428500D02*
X22027500Y-11528500D01*
X21977500Y-11478500D02*
X22077500Y-11478500D01*
X22027500Y-11682500D02*
X22027500Y-11782500D01*
X21977500Y-11732500D02*
X22077500Y-11732500D01*
X22027500Y-11936500D02*
X22027500Y-12036500D01*
X21977500Y-11986500D02*
X22077500Y-11986500D01*
X22027500Y-12190500D02*
X22027500Y-12290500D01*
X21977500Y-12240500D02*
X22077500Y-12240500D01*
X22027500Y-12444500D02*
X22027500Y-12544500D01*
X21977500Y-12494500D02*
X22077500Y-12494500D01*
X22027500Y-12698500D02*
X22027500Y-12798500D01*
X21977500Y-12748500D02*
X22077500Y-12748500D01*
X22027500Y-12952500D02*
X22027500Y-13052500D01*
X21977500Y-13002500D02*
X22077500Y-13002500D01*
X22027500Y-13206500D02*
X22027500Y-13306500D01*
X21977500Y-13256500D02*
X22077500Y-13256500D01*
X22027500Y-13460500D02*
X22027500Y-13560500D01*
X21977500Y-13510500D02*
X22077500Y-13510500D01*
X22027500Y-13714500D02*
X22027500Y-13814500D01*
X21977500Y-13764500D02*
X22077500Y-13764500D01*
X22027500Y-13968500D02*
X22027500Y-14068500D01*
X21977500Y-14018500D02*
X22077500Y-14018500D01*
X22027500Y-14222500D02*
X22027500Y-14322500D01*
X21977500Y-14272500D02*
X22077500Y-14272500D01*
X22027500Y-14476500D02*
X22027500Y-14576500D01*
X21977500Y-14526500D02*
X22077500Y-14526500D01*
X22027500Y-14730500D02*
X22027500Y-14830500D01*
X21977500Y-14780500D02*
X22077500Y-14780500D01*
X22027500Y-14984500D02*
X22027500Y-15084500D01*
X21977500Y-15034500D02*
X22077500Y-15034500D01*
X22027500Y-15238500D02*
X22027500Y-15338500D01*
X21977500Y-15288500D02*
X22077500Y-15288500D01*
X22027500Y-15492500D02*
X22027500Y-15592500D01*
X21977500Y-15542500D02*
X22077500Y-15542500D01*
X22027500Y-15746500D02*
X22027500Y-15846500D01*
X21977500Y-15796500D02*
X22077500Y-15796500D01*
X22027500Y-16000500D02*
X22027500Y-16100500D01*
X21977500Y-16050500D02*
X22077500Y-16050500D01*
X22027500Y-16254500D02*
X22027500Y-16354500D01*
X21977500Y-16304500D02*
X22077500Y-16304500D01*
X22027500Y-16508500D02*
X22027500Y-16608500D01*
X21977500Y-16558500D02*
X22077500Y-16558500D01*
X22027500Y-16762500D02*
X22027500Y-16862500D01*
X21977500Y-16812500D02*
X22077500Y-16812500D01*
X22027500Y-17016500D02*
X22027500Y-17116500D01*
X21977500Y-17066500D02*
X22077500Y-17066500D01*
X23300000Y-10288000D02*
X23300000Y-10388000D01*
X23250000Y-10338000D02*
X23350000Y-10338000D01*
X23300000Y-10542000D02*
X23300000Y-10642000D01*
X23250000Y-10592000D02*
X23350000Y-10592000D01*
X23300000Y-10796000D02*
X23300000Y-10896000D01*
X23250000Y-10846000D02*
X23350000Y-10846000D01*
X23300000Y-11050000D02*
X23300000Y-11150000D01*
X23250000Y-11100000D02*
X23350000Y-11100000D01*
X23300000Y-13888000D02*
X23300000Y-13988000D01*
X23250000Y-13938000D02*
X23350000Y-13938000D01*
X23300000Y-14142000D02*
X23300000Y-14242000D01*
X23250000Y-14192000D02*
X23350000Y-14192000D01*
X23300000Y-14396000D02*
X23300000Y-14496000D01*
X23250000Y-14446000D02*
X23350000Y-14446000D01*
X23300000Y-14650000D02*
X23300000Y-14750000D01*
X23250000Y-14700000D02*
X23350000Y-14700000D01*
X9442427Y-17942427D02*
X9442427Y-17857573D01*
X9357573Y-17857573D01*
X9357573Y-17942427D01*
X9442427Y-17942427D01*
X9823427Y-17942427D02*
X9823427Y-17857573D01*
X9738573Y-17857573D01*
X9738573Y-17942427D01*
X9823427Y-17942427D01*
X11042427Y-17942427D02*
X11042427Y-17857573D01*
X10957573Y-17857573D01*
X10957573Y-17942427D01*
X11042427Y-17942427D01*
X11423427Y-17942427D02*
X11423427Y-17857573D01*
X11338573Y-17857573D01*
X11338573Y-17942427D01*
X11423427Y-17942427D01*
D12*
X8281428Y-19670714D02*
X8281428Y-19370714D01*
X8352857Y-19370714D01*
X8395714Y-19385000D01*
X8424286Y-19413572D01*
X8438571Y-19442143D01*
X8452857Y-19499286D01*
X8452857Y-19542143D01*
X8438571Y-19599286D01*
X8424286Y-19627857D01*
X8395714Y-19656429D01*
X8352857Y-19670714D01*
X8281428Y-19670714D01*
X8581428Y-19670714D02*
X8581428Y-19470714D01*
X8581428Y-19527857D02*
X8595714Y-19499286D01*
X8610000Y-19485000D01*
X8638571Y-19470714D01*
X8667143Y-19470714D01*
X8767143Y-19670714D02*
X8767143Y-19470714D01*
X8767143Y-19370714D02*
X8752857Y-19385000D01*
X8767143Y-19399286D01*
X8781428Y-19385000D01*
X8767143Y-19370714D01*
X8767143Y-19399286D01*
X8952857Y-19670714D02*
X8924286Y-19656429D01*
X8910000Y-19627857D01*
X8910000Y-19370714D01*
X9110000Y-19670714D02*
X9081428Y-19656429D01*
X9067143Y-19627857D01*
X9067143Y-19370714D01*
X9452857Y-19670714D02*
X9452857Y-19370714D01*
X9552857Y-19585000D01*
X9652857Y-19370714D01*
X9652857Y-19670714D01*
X9924286Y-19670714D02*
X9924286Y-19513572D01*
X9910000Y-19485000D01*
X9881428Y-19470714D01*
X9824286Y-19470714D01*
X9795714Y-19485000D01*
X9924286Y-19656429D02*
X9895714Y-19670714D01*
X9824286Y-19670714D01*
X9795714Y-19656429D01*
X9781428Y-19627857D01*
X9781428Y-19599286D01*
X9795714Y-19570714D01*
X9824286Y-19556429D01*
X9895714Y-19556429D01*
X9924286Y-19542143D01*
X10067143Y-19470714D02*
X10067143Y-19770714D01*
X10067143Y-19485000D02*
X10095714Y-19470714D01*
X10152857Y-19470714D01*
X10181428Y-19485000D01*
X10195714Y-19499286D01*
X10210000Y-19527857D01*
X10210000Y-19613572D01*
X10195714Y-19642143D01*
X10181428Y-19656429D01*
X10152857Y-19670714D01*
X10095714Y-19670714D01*
X10067143Y-19656429D01*
X10338571Y-19642143D02*
X10352857Y-19656429D01*
X10338571Y-19670714D01*
X10324286Y-19656429D01*
X10338571Y-19642143D01*
X10338571Y-19670714D01*
X10338571Y-19485000D02*
X10352857Y-19499286D01*
X10338571Y-19513572D01*
X10324286Y-19499286D01*
X10338571Y-19485000D01*
X10338571Y-19513572D01*
X7955000Y-20145000D02*
X7995000Y-20185000D01*
X7995000Y-20145000D02*
X7955000Y-20185000D01*
X8338571Y-20000714D02*
X8367143Y-20000714D01*
X8395714Y-20015000D01*
X8410000Y-20029286D01*
X8424286Y-20057857D01*
X8438571Y-20115000D01*
X8438571Y-20186429D01*
X8424286Y-20243572D01*
X8410000Y-20272143D01*
X8395714Y-20286429D01*
X8367143Y-20300714D01*
X8338571Y-20300714D01*
X8310000Y-20286429D01*
X8295714Y-20272143D01*
X8281428Y-20243572D01*
X8267143Y-20186429D01*
X8267143Y-20115000D01*
X8281428Y-20057857D01*
X8295714Y-20029286D01*
X8310000Y-20015000D01*
X8338571Y-20000714D01*
X8567143Y-20272143D02*
X8581428Y-20286429D01*
X8567143Y-20300714D01*
X8552857Y-20286429D01*
X8567143Y-20272143D01*
X8567143Y-20300714D01*
X8838571Y-20100714D02*
X8838571Y-20300714D01*
X8767143Y-19986429D02*
X8695714Y-20200714D01*
X8881428Y-20200714D01*
X9052857Y-20000714D02*
X9081428Y-20000714D01*
X9110000Y-20015000D01*
X9124286Y-20029286D01*
X9138571Y-20057857D01*
X9152857Y-20115000D01*
X9152857Y-20186429D01*
X9138571Y-20243572D01*
X9124286Y-20272143D01*
X9110000Y-20286429D01*
X9081428Y-20300714D01*
X9052857Y-20300714D01*
X9024286Y-20286429D01*
X9010000Y-20272143D01*
X8995714Y-20243572D01*
X8981428Y-20186429D01*
X8981428Y-20115000D01*
X8995714Y-20057857D01*
X9010000Y-20029286D01*
X9024286Y-20015000D01*
X9052857Y-20000714D01*
X9338571Y-20000714D02*
X9367143Y-20000714D01*
X9395714Y-20015000D01*
X9410000Y-20029286D01*
X9424286Y-20057857D01*
X9438571Y-20115000D01*
X9438571Y-20186429D01*
X9424286Y-20243572D01*
X9410000Y-20272143D01*
X9395714Y-20286429D01*
X9367143Y-20300714D01*
X9338571Y-20300714D01*
X9310000Y-20286429D01*
X9295714Y-20272143D01*
X9281428Y-20243572D01*
X9267143Y-20186429D01*
X9267143Y-20115000D01*
X9281428Y-20057857D01*
X9295714Y-20029286D01*
X9310000Y-20015000D01*
X9338571Y-20000714D01*
X9567143Y-20300714D02*
X9567143Y-20100714D01*
X9567143Y-20129286D02*
X9581428Y-20115000D01*
X9610000Y-20100714D01*
X9652857Y-20100714D01*
X9681428Y-20115000D01*
X9695714Y-20143572D01*
X9695714Y-20300714D01*
X9695714Y-20143572D02*
X9710000Y-20115000D01*
X9738571Y-20100714D01*
X9781428Y-20100714D01*
X9810000Y-20115000D01*
X9824286Y-20143572D01*
X9824286Y-20300714D01*
X9967143Y-20300714D02*
X9967143Y-20100714D01*
X9967143Y-20129286D02*
X9981428Y-20115000D01*
X10010000Y-20100714D01*
X10052857Y-20100714D01*
X10081428Y-20115000D01*
X10095714Y-20143572D01*
X10095714Y-20300714D01*
X10095714Y-20143572D02*
X10110000Y-20115000D01*
X10138571Y-20100714D01*
X10181428Y-20100714D01*
X10210000Y-20115000D01*
X10224286Y-20143572D01*
X10224286Y-20300714D01*
X10810000Y-19986429D02*
X10552857Y-20372143D01*
X11195714Y-20000714D02*
X11224286Y-20000714D01*
X11252857Y-20015000D01*
X11267143Y-20029286D01*
X11281428Y-20057857D01*
X11295714Y-20115000D01*
X11295714Y-20186429D01*
X11281428Y-20243572D01*
X11267143Y-20272143D01*
X11252857Y-20286429D01*
X11224286Y-20300714D01*
X11195714Y-20300714D01*
X11167143Y-20286429D01*
X11152857Y-20272143D01*
X11138571Y-20243572D01*
X11124286Y-20186429D01*
X11124286Y-20115000D01*
X11138571Y-20057857D01*
X11152857Y-20029286D01*
X11167143Y-20015000D01*
X11195714Y-20000714D01*
X11424286Y-20272143D02*
X11438571Y-20286429D01*
X11424286Y-20300714D01*
X11410000Y-20286429D01*
X11424286Y-20272143D01*
X11424286Y-20300714D01*
X11624286Y-20000714D02*
X11652857Y-20000714D01*
X11681428Y-20015000D01*
X11695714Y-20029286D01*
X11710000Y-20057857D01*
X11724286Y-20115000D01*
X11724286Y-20186429D01*
X11710000Y-20243572D01*
X11695714Y-20272143D01*
X11681428Y-20286429D01*
X11652857Y-20300714D01*
X11624286Y-20300714D01*
X11595714Y-20286429D01*
X11581428Y-20272143D01*
X11567143Y-20243572D01*
X11552857Y-20186429D01*
X11552857Y-20115000D01*
X11567143Y-20057857D01*
X11581428Y-20029286D01*
X11595714Y-20015000D01*
X11624286Y-20000714D01*
X12010000Y-20300714D02*
X11838571Y-20300714D01*
X11924286Y-20300714D02*
X11924286Y-20000714D01*
X11895714Y-20043572D01*
X11867143Y-20072143D01*
X11838571Y-20086429D01*
X12281428Y-20000714D02*
X12138571Y-20000714D01*
X12124286Y-20143572D01*
X12138571Y-20129286D01*
X12167143Y-20115000D01*
X12238571Y-20115000D01*
X12267143Y-20129286D01*
X12281428Y-20143572D01*
X12295714Y-20172143D01*
X12295714Y-20243572D01*
X12281428Y-20272143D01*
X12267143Y-20286429D01*
X12238571Y-20300714D01*
X12167143Y-20300714D01*
X12138571Y-20286429D01*
X12124286Y-20272143D01*
X12395714Y-20000714D02*
X12595714Y-20000714D01*
X12467143Y-20300714D01*
X12695714Y-20000714D02*
X12695714Y-20057857D01*
X12810000Y-20000714D02*
X12810000Y-20057857D01*
X13252857Y-20415000D02*
X13238571Y-20400714D01*
X13210000Y-20357857D01*
X13195714Y-20329286D01*
X13181428Y-20286429D01*
X13167143Y-20215000D01*
X13167143Y-20157857D01*
X13181428Y-20086429D01*
X13195714Y-20043572D01*
X13210000Y-20015000D01*
X13238571Y-19972143D01*
X13252857Y-19957857D01*
X13510000Y-20000714D02*
X13367143Y-20000714D01*
X13352857Y-20143572D01*
X13367143Y-20129286D01*
X13395714Y-20115000D01*
X13467143Y-20115000D01*
X13495714Y-20129286D01*
X13510000Y-20143572D01*
X13524286Y-20172143D01*
X13524286Y-20243572D01*
X13510000Y-20272143D01*
X13495714Y-20286429D01*
X13467143Y-20300714D01*
X13395714Y-20300714D01*
X13367143Y-20286429D01*
X13352857Y-20272143D01*
X13667143Y-20300714D02*
X13724286Y-20300714D01*
X13752857Y-20286429D01*
X13767143Y-20272143D01*
X13795714Y-20229286D01*
X13810000Y-20172143D01*
X13810000Y-20057857D01*
X13795714Y-20029286D01*
X13781428Y-20015000D01*
X13752857Y-20000714D01*
X13695714Y-20000714D01*
X13667143Y-20015000D01*
X13652857Y-20029286D01*
X13638571Y-20057857D01*
X13638571Y-20129286D01*
X13652857Y-20157857D01*
X13667143Y-20172143D01*
X13695714Y-20186429D01*
X13752857Y-20186429D01*
X13781428Y-20172143D01*
X13795714Y-20157857D01*
X13810000Y-20129286D01*
X14167143Y-20300714D02*
X14167143Y-20000714D01*
X14295714Y-20300714D02*
X14295714Y-20143572D01*
X14281428Y-20115000D01*
X14252857Y-20100714D01*
X14210000Y-20100714D01*
X14181428Y-20115000D01*
X14167143Y-20129286D01*
X14481428Y-20300714D02*
X14452857Y-20286429D01*
X14438571Y-20272143D01*
X14424286Y-20243572D01*
X14424286Y-20157857D01*
X14438571Y-20129286D01*
X14452857Y-20115000D01*
X14481428Y-20100714D01*
X14524286Y-20100714D01*
X14552857Y-20115000D01*
X14567143Y-20129286D01*
X14581428Y-20157857D01*
X14581428Y-20243572D01*
X14567143Y-20272143D01*
X14552857Y-20286429D01*
X14524286Y-20300714D01*
X14481428Y-20300714D01*
X14752857Y-20300714D02*
X14724286Y-20286429D01*
X14710000Y-20257857D01*
X14710000Y-20000714D01*
X14981428Y-20286429D02*
X14952857Y-20300714D01*
X14895714Y-20300714D01*
X14867143Y-20286429D01*
X14852857Y-20257857D01*
X14852857Y-20143572D01*
X14867143Y-20115000D01*
X14895714Y-20100714D01*
X14952857Y-20100714D01*
X14981428Y-20115000D01*
X14995714Y-20143572D01*
X14995714Y-20172143D01*
X14852857Y-20200714D01*
X15110000Y-20286429D02*
X15138571Y-20300714D01*
X15195714Y-20300714D01*
X15224286Y-20286429D01*
X15238571Y-20257857D01*
X15238571Y-20243572D01*
X15224286Y-20215000D01*
X15195714Y-20200714D01*
X15152857Y-20200714D01*
X15124286Y-20186429D01*
X15110000Y-20157857D01*
X15110000Y-20143572D01*
X15124286Y-20115000D01*
X15152857Y-20100714D01*
X15195714Y-20100714D01*
X15224286Y-20115000D01*
X15338571Y-20415000D02*
X15352857Y-20400714D01*
X15381428Y-20357857D01*
X15395714Y-20329286D01*
X15410000Y-20286429D01*
X15424286Y-20215000D01*
X15424286Y-20157857D01*
X15410000Y-20086429D01*
X15395714Y-20043572D01*
X15381428Y-20015000D01*
X15352857Y-19972143D01*
X15338571Y-19957857D01*
X7995000Y-20561000D02*
G75*
G03*
X7995000Y-20561000I-40000J0D01*
G01*
X8338571Y-20396714D02*
X8367143Y-20396714D01*
X8395714Y-20411000D01*
X8410000Y-20425286D01*
X8424286Y-20453857D01*
X8438571Y-20511000D01*
X8438571Y-20582429D01*
X8424286Y-20639572D01*
X8410000Y-20668143D01*
X8395714Y-20682429D01*
X8367143Y-20696714D01*
X8338571Y-20696714D01*
X8310000Y-20682429D01*
X8295714Y-20668143D01*
X8281428Y-20639572D01*
X8267143Y-20582429D01*
X8267143Y-20511000D01*
X8281428Y-20453857D01*
X8295714Y-20425286D01*
X8310000Y-20411000D01*
X8338571Y-20396714D01*
X8567143Y-20668143D02*
X8581428Y-20682429D01*
X8567143Y-20696714D01*
X8552857Y-20682429D01*
X8567143Y-20668143D01*
X8567143Y-20696714D01*
X8752857Y-20525286D02*
X8724286Y-20511000D01*
X8710000Y-20496714D01*
X8695714Y-20468143D01*
X8695714Y-20453857D01*
X8710000Y-20425286D01*
X8724286Y-20411000D01*
X8752857Y-20396714D01*
X8810000Y-20396714D01*
X8838571Y-20411000D01*
X8852857Y-20425286D01*
X8867143Y-20453857D01*
X8867143Y-20468143D01*
X8852857Y-20496714D01*
X8838571Y-20511000D01*
X8810000Y-20525286D01*
X8752857Y-20525286D01*
X8724286Y-20539572D01*
X8710000Y-20553857D01*
X8695714Y-20582429D01*
X8695714Y-20639572D01*
X8710000Y-20668143D01*
X8724286Y-20682429D01*
X8752857Y-20696714D01*
X8810000Y-20696714D01*
X8838571Y-20682429D01*
X8852857Y-20668143D01*
X8867143Y-20639572D01*
X8867143Y-20582429D01*
X8852857Y-20553857D01*
X8838571Y-20539572D01*
X8810000Y-20525286D01*
X9052857Y-20396714D02*
X9081428Y-20396714D01*
X9110000Y-20411000D01*
X9124286Y-20425286D01*
X9138571Y-20453857D01*
X9152857Y-20511000D01*
X9152857Y-20582429D01*
X9138571Y-20639572D01*
X9124286Y-20668143D01*
X9110000Y-20682429D01*
X9081428Y-20696714D01*
X9052857Y-20696714D01*
X9024286Y-20682429D01*
X9010000Y-20668143D01*
X8995714Y-20639572D01*
X8981428Y-20582429D01*
X8981428Y-20511000D01*
X8995714Y-20453857D01*
X9010000Y-20425286D01*
X9024286Y-20411000D01*
X9052857Y-20396714D01*
X9338571Y-20396714D02*
X9367143Y-20396714D01*
X9395714Y-20411000D01*
X9410000Y-20425286D01*
X9424286Y-20453857D01*
X9438571Y-20511000D01*
X9438571Y-20582429D01*
X9424286Y-20639572D01*
X9410000Y-20668143D01*
X9395714Y-20682429D01*
X9367143Y-20696714D01*
X9338571Y-20696714D01*
X9310000Y-20682429D01*
X9295714Y-20668143D01*
X9281428Y-20639572D01*
X9267143Y-20582429D01*
X9267143Y-20511000D01*
X9281428Y-20453857D01*
X9295714Y-20425286D01*
X9310000Y-20411000D01*
X9338571Y-20396714D01*
X9567143Y-20696714D02*
X9567143Y-20496714D01*
X9567143Y-20525286D02*
X9581428Y-20511000D01*
X9610000Y-20496714D01*
X9652857Y-20496714D01*
X9681428Y-20511000D01*
X9695714Y-20539572D01*
X9695714Y-20696714D01*
X9695714Y-20539572D02*
X9710000Y-20511000D01*
X9738571Y-20496714D01*
X9781428Y-20496714D01*
X9810000Y-20511000D01*
X9824286Y-20539572D01*
X9824286Y-20696714D01*
X9967143Y-20696714D02*
X9967143Y-20496714D01*
X9967143Y-20525286D02*
X9981428Y-20511000D01*
X10010000Y-20496714D01*
X10052857Y-20496714D01*
X10081428Y-20511000D01*
X10095714Y-20539572D01*
X10095714Y-20696714D01*
X10095714Y-20539572D02*
X10110000Y-20511000D01*
X10138571Y-20496714D01*
X10181428Y-20496714D01*
X10210000Y-20511000D01*
X10224286Y-20539572D01*
X10224286Y-20696714D01*
X10810000Y-20382429D02*
X10552857Y-20768143D01*
X11195714Y-20396714D02*
X11224286Y-20396714D01*
X11252857Y-20411000D01*
X11267143Y-20425286D01*
X11281428Y-20453857D01*
X11295714Y-20511000D01*
X11295714Y-20582429D01*
X11281428Y-20639572D01*
X11267143Y-20668143D01*
X11252857Y-20682429D01*
X11224286Y-20696714D01*
X11195714Y-20696714D01*
X11167143Y-20682429D01*
X11152857Y-20668143D01*
X11138571Y-20639572D01*
X11124286Y-20582429D01*
X11124286Y-20511000D01*
X11138571Y-20453857D01*
X11152857Y-20425286D01*
X11167143Y-20411000D01*
X11195714Y-20396714D01*
X11424286Y-20668143D02*
X11438571Y-20682429D01*
X11424286Y-20696714D01*
X11410000Y-20682429D01*
X11424286Y-20668143D01*
X11424286Y-20696714D01*
X11624286Y-20396714D02*
X11652857Y-20396714D01*
X11681428Y-20411000D01*
X11695714Y-20425286D01*
X11710000Y-20453857D01*
X11724286Y-20511000D01*
X11724286Y-20582429D01*
X11710000Y-20639572D01*
X11695714Y-20668143D01*
X11681428Y-20682429D01*
X11652857Y-20696714D01*
X11624286Y-20696714D01*
X11595714Y-20682429D01*
X11581428Y-20668143D01*
X11567143Y-20639572D01*
X11552857Y-20582429D01*
X11552857Y-20511000D01*
X11567143Y-20453857D01*
X11581428Y-20425286D01*
X11595714Y-20411000D01*
X11624286Y-20396714D01*
X11824286Y-20396714D02*
X12010000Y-20396714D01*
X11910000Y-20511000D01*
X11952857Y-20511000D01*
X11981428Y-20525286D01*
X11995714Y-20539572D01*
X12010000Y-20568143D01*
X12010000Y-20639572D01*
X11995714Y-20668143D01*
X11981428Y-20682429D01*
X11952857Y-20696714D01*
X11867143Y-20696714D01*
X11838571Y-20682429D01*
X11824286Y-20668143D01*
X12295714Y-20696714D02*
X12124286Y-20696714D01*
X12210000Y-20696714D02*
X12210000Y-20396714D01*
X12181428Y-20439572D01*
X12152857Y-20468143D01*
X12124286Y-20482429D01*
X12567143Y-20396714D02*
X12424286Y-20396714D01*
X12410000Y-20539572D01*
X12424286Y-20525286D01*
X12452857Y-20511000D01*
X12524286Y-20511000D01*
X12552857Y-20525286D01*
X12567143Y-20539572D01*
X12581428Y-20568143D01*
X12581428Y-20639572D01*
X12567143Y-20668143D01*
X12552857Y-20682429D01*
X12524286Y-20696714D01*
X12452857Y-20696714D01*
X12424286Y-20682429D01*
X12410000Y-20668143D01*
X12695714Y-20396714D02*
X12695714Y-20453857D01*
X12810000Y-20396714D02*
X12810000Y-20453857D01*
X13252857Y-20811000D02*
X13238571Y-20796714D01*
X13210000Y-20753857D01*
X13195714Y-20725286D01*
X13181428Y-20682429D01*
X13167143Y-20611000D01*
X13167143Y-20553857D01*
X13181428Y-20482429D01*
X13195714Y-20439572D01*
X13210000Y-20411000D01*
X13238571Y-20368143D01*
X13252857Y-20353857D01*
X13352857Y-20425286D02*
X13367143Y-20411000D01*
X13395714Y-20396714D01*
X13467143Y-20396714D01*
X13495714Y-20411000D01*
X13510000Y-20425286D01*
X13524286Y-20453857D01*
X13524286Y-20482429D01*
X13510000Y-20525286D01*
X13338571Y-20696714D01*
X13524286Y-20696714D01*
X13710000Y-20396714D02*
X13738571Y-20396714D01*
X13767143Y-20411000D01*
X13781428Y-20425286D01*
X13795714Y-20453857D01*
X13810000Y-20511000D01*
X13810000Y-20582429D01*
X13795714Y-20639572D01*
X13781428Y-20668143D01*
X13767143Y-20682429D01*
X13738571Y-20696714D01*
X13710000Y-20696714D01*
X13681428Y-20682429D01*
X13667143Y-20668143D01*
X13652857Y-20639572D01*
X13638571Y-20582429D01*
X13638571Y-20511000D01*
X13652857Y-20453857D01*
X13667143Y-20425286D01*
X13681428Y-20411000D01*
X13710000Y-20396714D01*
X14167143Y-20696714D02*
X14167143Y-20396714D01*
X14295714Y-20696714D02*
X14295714Y-20539572D01*
X14281428Y-20511000D01*
X14252857Y-20496714D01*
X14210000Y-20496714D01*
X14181428Y-20511000D01*
X14167143Y-20525286D01*
X14481428Y-20696714D02*
X14452857Y-20682429D01*
X14438571Y-20668143D01*
X14424286Y-20639572D01*
X14424286Y-20553857D01*
X14438571Y-20525286D01*
X14452857Y-20511000D01*
X14481428Y-20496714D01*
X14524286Y-20496714D01*
X14552857Y-20511000D01*
X14567143Y-20525286D01*
X14581428Y-20553857D01*
X14581428Y-20639572D01*
X14567143Y-20668143D01*
X14552857Y-20682429D01*
X14524286Y-20696714D01*
X14481428Y-20696714D01*
X14752857Y-20696714D02*
X14724286Y-20682429D01*
X14710000Y-20653857D01*
X14710000Y-20396714D01*
X14981428Y-20682429D02*
X14952857Y-20696714D01*
X14895714Y-20696714D01*
X14867143Y-20682429D01*
X14852857Y-20653857D01*
X14852857Y-20539572D01*
X14867143Y-20511000D01*
X14895714Y-20496714D01*
X14952857Y-20496714D01*
X14981428Y-20511000D01*
X14995714Y-20539572D01*
X14995714Y-20568143D01*
X14852857Y-20596714D01*
X15110000Y-20682429D02*
X15138571Y-20696714D01*
X15195714Y-20696714D01*
X15224286Y-20682429D01*
X15238571Y-20653857D01*
X15238571Y-20639572D01*
X15224286Y-20611000D01*
X15195714Y-20596714D01*
X15152857Y-20596714D01*
X15124286Y-20582429D01*
X15110000Y-20553857D01*
X15110000Y-20539572D01*
X15124286Y-20511000D01*
X15152857Y-20496714D01*
X15195714Y-20496714D01*
X15224286Y-20511000D01*
X15338571Y-20811000D02*
X15352857Y-20796714D01*
X15381428Y-20753857D01*
X15395714Y-20725286D01*
X15410000Y-20682429D01*
X15424286Y-20611000D01*
X15424286Y-20553857D01*
X15410000Y-20482429D01*
X15395714Y-20439572D01*
X15381428Y-20411000D01*
X15352857Y-20368143D01*
X15338571Y-20353857D01*
X7945000Y-20907000D02*
X7945000Y-21007000D01*
X7895000Y-20957000D02*
X7995000Y-20957000D01*
X8438571Y-21092714D02*
X8267143Y-21092714D01*
X8352857Y-21092714D02*
X8352857Y-20792714D01*
X8324286Y-20835572D01*
X8295714Y-20864143D01*
X8267143Y-20878429D01*
X8567143Y-21064143D02*
X8581428Y-21078429D01*
X8567143Y-21092714D01*
X8552857Y-21078429D01*
X8567143Y-21064143D01*
X8567143Y-21092714D01*
X8767143Y-20792714D02*
X8795714Y-20792714D01*
X8824286Y-20807000D01*
X8838571Y-20821286D01*
X8852857Y-20849857D01*
X8867143Y-20907000D01*
X8867143Y-20978429D01*
X8852857Y-21035572D01*
X8838571Y-21064143D01*
X8824286Y-21078429D01*
X8795714Y-21092714D01*
X8767143Y-21092714D01*
X8738571Y-21078429D01*
X8724286Y-21064143D01*
X8710000Y-21035572D01*
X8695714Y-20978429D01*
X8695714Y-20907000D01*
X8710000Y-20849857D01*
X8724286Y-20821286D01*
X8738571Y-20807000D01*
X8767143Y-20792714D01*
X9052857Y-20792714D02*
X9081428Y-20792714D01*
X9110000Y-20807000D01*
X9124286Y-20821286D01*
X9138571Y-20849857D01*
X9152857Y-20907000D01*
X9152857Y-20978429D01*
X9138571Y-21035572D01*
X9124286Y-21064143D01*
X9110000Y-21078429D01*
X9081428Y-21092714D01*
X9052857Y-21092714D01*
X9024286Y-21078429D01*
X9010000Y-21064143D01*
X8995714Y-21035572D01*
X8981428Y-20978429D01*
X8981428Y-20907000D01*
X8995714Y-20849857D01*
X9010000Y-20821286D01*
X9024286Y-20807000D01*
X9052857Y-20792714D01*
X9338571Y-20792714D02*
X9367143Y-20792714D01*
X9395714Y-20807000D01*
X9410000Y-20821286D01*
X9424286Y-20849857D01*
X9438571Y-20907000D01*
X9438571Y-20978429D01*
X9424286Y-21035572D01*
X9410000Y-21064143D01*
X9395714Y-21078429D01*
X9367143Y-21092714D01*
X9338571Y-21092714D01*
X9310000Y-21078429D01*
X9295714Y-21064143D01*
X9281428Y-21035572D01*
X9267143Y-20978429D01*
X9267143Y-20907000D01*
X9281428Y-20849857D01*
X9295714Y-20821286D01*
X9310000Y-20807000D01*
X9338571Y-20792714D01*
X9567143Y-21092714D02*
X9567143Y-20892714D01*
X9567143Y-20921286D02*
X9581428Y-20907000D01*
X9610000Y-20892714D01*
X9652857Y-20892714D01*
X9681428Y-20907000D01*
X9695714Y-20935572D01*
X9695714Y-21092714D01*
X9695714Y-20935572D02*
X9710000Y-20907000D01*
X9738571Y-20892714D01*
X9781428Y-20892714D01*
X9810000Y-20907000D01*
X9824286Y-20935572D01*
X9824286Y-21092714D01*
X9967143Y-21092714D02*
X9967143Y-20892714D01*
X9967143Y-20921286D02*
X9981428Y-20907000D01*
X10010000Y-20892714D01*
X10052857Y-20892714D01*
X10081428Y-20907000D01*
X10095714Y-20935572D01*
X10095714Y-21092714D01*
X10095714Y-20935572D02*
X10110000Y-20907000D01*
X10138571Y-20892714D01*
X10181428Y-20892714D01*
X10210000Y-20907000D01*
X10224286Y-20935572D01*
X10224286Y-21092714D01*
X10810000Y-20778429D02*
X10552857Y-21164143D01*
X11195714Y-20792714D02*
X11224286Y-20792714D01*
X11252857Y-20807000D01*
X11267143Y-20821286D01*
X11281428Y-20849857D01*
X11295714Y-20907000D01*
X11295714Y-20978429D01*
X11281428Y-21035572D01*
X11267143Y-21064143D01*
X11252857Y-21078429D01*
X11224286Y-21092714D01*
X11195714Y-21092714D01*
X11167143Y-21078429D01*
X11152857Y-21064143D01*
X11138571Y-21035572D01*
X11124286Y-20978429D01*
X11124286Y-20907000D01*
X11138571Y-20849857D01*
X11152857Y-20821286D01*
X11167143Y-20807000D01*
X11195714Y-20792714D01*
X11424286Y-21064143D02*
X11438571Y-21078429D01*
X11424286Y-21092714D01*
X11410000Y-21078429D01*
X11424286Y-21064143D01*
X11424286Y-21092714D01*
X11624286Y-20792714D02*
X11652857Y-20792714D01*
X11681428Y-20807000D01*
X11695714Y-20821286D01*
X11710000Y-20849857D01*
X11724286Y-20907000D01*
X11724286Y-20978429D01*
X11710000Y-21035572D01*
X11695714Y-21064143D01*
X11681428Y-21078429D01*
X11652857Y-21092714D01*
X11624286Y-21092714D01*
X11595714Y-21078429D01*
X11581428Y-21064143D01*
X11567143Y-21035572D01*
X11552857Y-20978429D01*
X11552857Y-20907000D01*
X11567143Y-20849857D01*
X11581428Y-20821286D01*
X11595714Y-20807000D01*
X11624286Y-20792714D01*
X11824286Y-20792714D02*
X12010000Y-20792714D01*
X11910000Y-20907000D01*
X11952857Y-20907000D01*
X11981428Y-20921286D01*
X11995714Y-20935572D01*
X12010000Y-20964143D01*
X12010000Y-21035572D01*
X11995714Y-21064143D01*
X11981428Y-21078429D01*
X11952857Y-21092714D01*
X11867143Y-21092714D01*
X11838571Y-21078429D01*
X11824286Y-21064143D01*
X12152857Y-21092714D02*
X12210000Y-21092714D01*
X12238571Y-21078429D01*
X12252857Y-21064143D01*
X12281428Y-21021286D01*
X12295714Y-20964143D01*
X12295714Y-20849857D01*
X12281428Y-20821286D01*
X12267143Y-20807000D01*
X12238571Y-20792714D01*
X12181428Y-20792714D01*
X12152857Y-20807000D01*
X12138571Y-20821286D01*
X12124286Y-20849857D01*
X12124286Y-20921286D01*
X12138571Y-20949857D01*
X12152857Y-20964143D01*
X12181428Y-20978429D01*
X12238571Y-20978429D01*
X12267143Y-20964143D01*
X12281428Y-20949857D01*
X12295714Y-20921286D01*
X12552857Y-20892714D02*
X12552857Y-21092714D01*
X12481428Y-20778429D02*
X12410000Y-20992714D01*
X12595714Y-20992714D01*
X12695714Y-20792714D02*
X12695714Y-20849857D01*
X12810000Y-20792714D02*
X12810000Y-20849857D01*
X13252857Y-21207000D02*
X13238571Y-21192714D01*
X13210000Y-21149857D01*
X13195714Y-21121286D01*
X13181428Y-21078429D01*
X13167143Y-21007000D01*
X13167143Y-20949857D01*
X13181428Y-20878429D01*
X13195714Y-20835572D01*
X13210000Y-20807000D01*
X13238571Y-20764143D01*
X13252857Y-20749857D01*
X13352857Y-20821286D02*
X13367143Y-20807000D01*
X13395714Y-20792714D01*
X13467143Y-20792714D01*
X13495714Y-20807000D01*
X13510000Y-20821286D01*
X13524286Y-20849857D01*
X13524286Y-20878429D01*
X13510000Y-20921286D01*
X13338571Y-21092714D01*
X13524286Y-21092714D01*
X13781428Y-20792714D02*
X13724286Y-20792714D01*
X13695714Y-20807000D01*
X13681428Y-20821286D01*
X13652857Y-20864143D01*
X13638571Y-20921286D01*
X13638571Y-21035572D01*
X13652857Y-21064143D01*
X13667143Y-21078429D01*
X13695714Y-21092714D01*
X13752857Y-21092714D01*
X13781428Y-21078429D01*
X13795714Y-21064143D01*
X13810000Y-21035572D01*
X13810000Y-20964143D01*
X13795714Y-20935572D01*
X13781428Y-20921286D01*
X13752857Y-20907000D01*
X13695714Y-20907000D01*
X13667143Y-20921286D01*
X13652857Y-20935572D01*
X13638571Y-20964143D01*
X14067143Y-20892714D02*
X14067143Y-21092714D01*
X13995714Y-20778429D02*
X13924286Y-20992714D01*
X14110000Y-20992714D01*
X14452857Y-21092714D02*
X14452857Y-20792714D01*
X14581428Y-21092714D02*
X14581428Y-20935572D01*
X14567143Y-20907000D01*
X14538571Y-20892714D01*
X14495714Y-20892714D01*
X14467143Y-20907000D01*
X14452857Y-20921286D01*
X14767143Y-21092714D02*
X14738571Y-21078429D01*
X14724286Y-21064143D01*
X14710000Y-21035572D01*
X14710000Y-20949857D01*
X14724286Y-20921286D01*
X14738571Y-20907000D01*
X14767143Y-20892714D01*
X14810000Y-20892714D01*
X14838571Y-20907000D01*
X14852857Y-20921286D01*
X14867143Y-20949857D01*
X14867143Y-21035572D01*
X14852857Y-21064143D01*
X14838571Y-21078429D01*
X14810000Y-21092714D01*
X14767143Y-21092714D01*
X15038571Y-21092714D02*
X15010000Y-21078429D01*
X14995714Y-21049857D01*
X14995714Y-20792714D01*
X15267143Y-21078429D02*
X15238571Y-21092714D01*
X15181428Y-21092714D01*
X15152857Y-21078429D01*
X15138571Y-21049857D01*
X15138571Y-20935572D01*
X15152857Y-20907000D01*
X15181428Y-20892714D01*
X15238571Y-20892714D01*
X15267143Y-20907000D01*
X15281428Y-20935572D01*
X15281428Y-20964143D01*
X15138571Y-20992714D01*
X15395714Y-21078429D02*
X15424286Y-21092714D01*
X15481428Y-21092714D01*
X15510000Y-21078429D01*
X15524286Y-21049857D01*
X15524286Y-21035572D01*
X15510000Y-21007000D01*
X15481428Y-20992714D01*
X15438571Y-20992714D01*
X15410000Y-20978429D01*
X15395714Y-20949857D01*
X15395714Y-20935572D01*
X15410000Y-20907000D01*
X15438571Y-20892714D01*
X15481428Y-20892714D01*
X15510000Y-20907000D01*
X15624286Y-21207000D02*
X15638571Y-21192714D01*
X15667143Y-21149857D01*
X15681428Y-21121286D01*
X15695714Y-21078429D01*
X15710000Y-21007000D01*
X15710000Y-20949857D01*
X15695714Y-20878429D01*
X15681428Y-20835572D01*
X15667143Y-20807000D01*
X15638571Y-20764143D01*
X15624286Y-20749857D01*
X7977427Y-21395427D02*
X7977427Y-21310573D01*
X7892573Y-21310573D01*
X7892573Y-21395427D01*
X7977427Y-21395427D01*
X8438571Y-21488714D02*
X8267143Y-21488714D01*
X8352857Y-21488714D02*
X8352857Y-21188714D01*
X8324286Y-21231572D01*
X8295714Y-21260143D01*
X8267143Y-21274429D01*
X8567143Y-21460143D02*
X8581428Y-21474429D01*
X8567143Y-21488714D01*
X8552857Y-21474429D01*
X8567143Y-21460143D01*
X8567143Y-21488714D01*
X8695714Y-21217286D02*
X8710000Y-21203000D01*
X8738571Y-21188714D01*
X8810000Y-21188714D01*
X8838571Y-21203000D01*
X8852857Y-21217286D01*
X8867143Y-21245857D01*
X8867143Y-21274429D01*
X8852857Y-21317286D01*
X8681428Y-21488714D01*
X8867143Y-21488714D01*
X9052857Y-21188714D02*
X9081428Y-21188714D01*
X9110000Y-21203000D01*
X9124286Y-21217286D01*
X9138571Y-21245857D01*
X9152857Y-21303000D01*
X9152857Y-21374429D01*
X9138571Y-21431572D01*
X9124286Y-21460143D01*
X9110000Y-21474429D01*
X9081428Y-21488714D01*
X9052857Y-21488714D01*
X9024286Y-21474429D01*
X9010000Y-21460143D01*
X8995714Y-21431572D01*
X8981428Y-21374429D01*
X8981428Y-21303000D01*
X8995714Y-21245857D01*
X9010000Y-21217286D01*
X9024286Y-21203000D01*
X9052857Y-21188714D01*
X9338571Y-21188714D02*
X9367143Y-21188714D01*
X9395714Y-21203000D01*
X9410000Y-21217286D01*
X9424286Y-21245857D01*
X9438571Y-21303000D01*
X9438571Y-21374429D01*
X9424286Y-21431572D01*
X9410000Y-21460143D01*
X9395714Y-21474429D01*
X9367143Y-21488714D01*
X9338571Y-21488714D01*
X9310000Y-21474429D01*
X9295714Y-21460143D01*
X9281428Y-21431572D01*
X9267143Y-21374429D01*
X9267143Y-21303000D01*
X9281428Y-21245857D01*
X9295714Y-21217286D01*
X9310000Y-21203000D01*
X9338571Y-21188714D01*
X9567143Y-21488714D02*
X9567143Y-21288714D01*
X9567143Y-21317286D02*
X9581428Y-21303000D01*
X9610000Y-21288714D01*
X9652857Y-21288714D01*
X9681428Y-21303000D01*
X9695714Y-21331572D01*
X9695714Y-21488714D01*
X9695714Y-21331572D02*
X9710000Y-21303000D01*
X9738571Y-21288714D01*
X9781428Y-21288714D01*
X9810000Y-21303000D01*
X9824286Y-21331572D01*
X9824286Y-21488714D01*
X9967143Y-21488714D02*
X9967143Y-21288714D01*
X9967143Y-21317286D02*
X9981428Y-21303000D01*
X10010000Y-21288714D01*
X10052857Y-21288714D01*
X10081428Y-21303000D01*
X10095714Y-21331572D01*
X10095714Y-21488714D01*
X10095714Y-21331572D02*
X10110000Y-21303000D01*
X10138571Y-21288714D01*
X10181428Y-21288714D01*
X10210000Y-21303000D01*
X10224286Y-21331572D01*
X10224286Y-21488714D01*
X10810000Y-21174429D02*
X10552857Y-21560143D01*
X11195714Y-21188714D02*
X11224286Y-21188714D01*
X11252857Y-21203000D01*
X11267143Y-21217286D01*
X11281428Y-21245857D01*
X11295714Y-21303000D01*
X11295714Y-21374429D01*
X11281428Y-21431572D01*
X11267143Y-21460143D01*
X11252857Y-21474429D01*
X11224286Y-21488714D01*
X11195714Y-21488714D01*
X11167143Y-21474429D01*
X11152857Y-21460143D01*
X11138571Y-21431572D01*
X11124286Y-21374429D01*
X11124286Y-21303000D01*
X11138571Y-21245857D01*
X11152857Y-21217286D01*
X11167143Y-21203000D01*
X11195714Y-21188714D01*
X11424286Y-21460143D02*
X11438571Y-21474429D01*
X11424286Y-21488714D01*
X11410000Y-21474429D01*
X11424286Y-21460143D01*
X11424286Y-21488714D01*
X11624286Y-21188714D02*
X11652857Y-21188714D01*
X11681428Y-21203000D01*
X11695714Y-21217286D01*
X11710000Y-21245857D01*
X11724286Y-21303000D01*
X11724286Y-21374429D01*
X11710000Y-21431572D01*
X11695714Y-21460143D01*
X11681428Y-21474429D01*
X11652857Y-21488714D01*
X11624286Y-21488714D01*
X11595714Y-21474429D01*
X11581428Y-21460143D01*
X11567143Y-21431572D01*
X11552857Y-21374429D01*
X11552857Y-21303000D01*
X11567143Y-21245857D01*
X11581428Y-21217286D01*
X11595714Y-21203000D01*
X11624286Y-21188714D01*
X11981428Y-21288714D02*
X11981428Y-21488714D01*
X11910000Y-21174429D02*
X11838571Y-21388714D01*
X12024286Y-21388714D01*
X12110000Y-21188714D02*
X12310000Y-21188714D01*
X12181428Y-21488714D01*
X12410000Y-21217286D02*
X12424286Y-21203000D01*
X12452857Y-21188714D01*
X12524286Y-21188714D01*
X12552857Y-21203000D01*
X12567143Y-21217286D01*
X12581428Y-21245857D01*
X12581428Y-21274429D01*
X12567143Y-21317286D01*
X12395714Y-21488714D01*
X12581428Y-21488714D01*
X12695714Y-21188714D02*
X12695714Y-21245857D01*
X12810000Y-21188714D02*
X12810000Y-21245857D01*
X13252857Y-21603000D02*
X13238571Y-21588714D01*
X13210000Y-21545857D01*
X13195714Y-21517286D01*
X13181428Y-21474429D01*
X13167143Y-21403000D01*
X13167143Y-21345857D01*
X13181428Y-21274429D01*
X13195714Y-21231572D01*
X13210000Y-21203000D01*
X13238571Y-21160143D01*
X13252857Y-21145857D01*
X13495714Y-21288714D02*
X13495714Y-21488714D01*
X13424286Y-21174429D02*
X13352857Y-21388714D01*
X13538571Y-21388714D01*
X13881428Y-21488714D02*
X13881428Y-21188714D01*
X14010000Y-21488714D02*
X14010000Y-21331572D01*
X13995714Y-21303000D01*
X13967143Y-21288714D01*
X13924286Y-21288714D01*
X13895714Y-21303000D01*
X13881428Y-21317286D01*
X14195714Y-21488714D02*
X14167143Y-21474429D01*
X14152857Y-21460143D01*
X14138571Y-21431572D01*
X14138571Y-21345857D01*
X14152857Y-21317286D01*
X14167143Y-21303000D01*
X14195714Y-21288714D01*
X14238571Y-21288714D01*
X14267143Y-21303000D01*
X14281428Y-21317286D01*
X14295714Y-21345857D01*
X14295714Y-21431572D01*
X14281428Y-21460143D01*
X14267143Y-21474429D01*
X14238571Y-21488714D01*
X14195714Y-21488714D01*
X14467143Y-21488714D02*
X14438571Y-21474429D01*
X14424286Y-21445857D01*
X14424286Y-21188714D01*
X14695714Y-21474429D02*
X14667143Y-21488714D01*
X14610000Y-21488714D01*
X14581428Y-21474429D01*
X14567143Y-21445857D01*
X14567143Y-21331572D01*
X14581428Y-21303000D01*
X14610000Y-21288714D01*
X14667143Y-21288714D01*
X14695714Y-21303000D01*
X14710000Y-21331572D01*
X14710000Y-21360143D01*
X14567143Y-21388714D01*
X14824286Y-21474429D02*
X14852857Y-21488714D01*
X14910000Y-21488714D01*
X14938571Y-21474429D01*
X14952857Y-21445857D01*
X14952857Y-21431572D01*
X14938571Y-21403000D01*
X14910000Y-21388714D01*
X14867143Y-21388714D01*
X14838571Y-21374429D01*
X14824286Y-21345857D01*
X14824286Y-21331572D01*
X14838571Y-21303000D01*
X14867143Y-21288714D01*
X14910000Y-21288714D01*
X14938571Y-21303000D01*
X15052857Y-21603000D02*
X15067143Y-21588714D01*
X15095714Y-21545857D01*
X15110000Y-21517286D01*
X15124286Y-21474429D01*
X15138571Y-21403000D01*
X15138571Y-21345857D01*
X15124286Y-21274429D01*
X15110000Y-21231572D01*
X15095714Y-21203000D01*
X15067143Y-21160143D01*
X15052857Y-21145857D01*
M02*
